<?xml version="1.0" encoding="utf-8"?>
<!-- Generator: Adobe Illustrator 15.0.2, SVG Export Plug-In . SVG Version: 6.00 Build 0)  -->
<!DOCTYPE svg PUBLIC "-//W3C//DTD SVG 1.1//EN" "http://www.w3.org/Graphics/SVG/1.1/DTD/svg11.dtd">
<svg version="1.1" id="Layer_1" xmlns="http://www.w3.org/2000/svg" xmlns:xlink="http://www.w3.org/1999/xlink" x="0px" y="0px"
	 width="100px" height="100px" viewBox="0 0 100 100" enable-background="new 0 0 100 100" xml:space="preserve">
<g>
	
		<rect x="60.158" y="38.193" fill="none" stroke="#000000" stroke-linecap="round" stroke-miterlimit="10" width="14.879" height="14.875"/>
	
		<rect x="60.158" y="56.789" fill="none" stroke="#000000" stroke-linecap="round" stroke-miterlimit="10" width="14.879" height="14.877"/>
	
		<rect x="41.562" y="38.193" fill="none" stroke="#000000" stroke-linecap="round" stroke-miterlimit="10" width="14.881" height="14.875"/>
	
		<rect x="41.562" y="56.789" fill="none" stroke="#000000" stroke-linecap="round" stroke-miterlimit="10" width="14.881" height="14.877"/>
	
		<rect x="22.963" y="56.789" fill="none" stroke="#000000" stroke-linecap="round" stroke-miterlimit="10" width="14.881" height="14.877"/>
</g>
<rect x="22.963" y="31.193" fill="none" stroke="#A2FF00" stroke-linecap="round" stroke-miterlimit="10" width="14.881" height="14.876"/>
<g>
	<path fill="#A2FF00" d="M50,1.562c-0.019,0-0.037,0-0.055,0c-0.552,0-1,0.448-0.999,1c0.001,0.552,0.449,1,1,1c0,0,0,0,0.001,0H50
		c0.032,0,0.064-0.001,0.096-0.004c0.032,0.003,0.063,0.004,0.096,0.005h0.053c0.001,0,0.003,0,0.005,0c0.55,0,0.998-0.444,1-0.995
		s-0.44-1-0.991-1.005c-0.007,0-0.014,0-0.021,0c-0.009,0-0.019,0-0.028,0c-0.005,0-0.009,0-0.014,0c0,0-0.001,0-0.001,0
		c-0.032,0-0.064,0.001-0.095,0.004C50.067,1.563,50.034,1.562,50,1.562C50,1.562,50,1.562,50,1.562L50,1.562z M46.033,1.726
		c-0.028,0-0.056,0.001-0.084,0.003c-0.008,0-0.017,0.001-0.025,0.002c-0.001,0-0.005,0-0.007,0
		c-0.007,0.001-0.015,0.001-0.022,0.002c-0.55,0.046-0.959,0.529-0.913,1.08c0.044,0.522,0.481,0.917,0.996,0.917
		c0.028,0,0.056-0.001,0.084-0.003l0.052-0.004c0.55-0.046,0.959-0.529,0.914-1.08C46.985,2.121,46.548,1.726,46.033,1.726
		L46.033,1.726z M42.094,2.218c-0.055,0-0.11,0.004-0.166,0.014c-0.021,0.003-0.039,0.007-0.06,0.01
		c-0.542,0.093-0.908,0.608-0.816,1.151c0.083,0.488,0.506,0.834,0.985,0.834c0.055,0,0.111-0.004,0.167-0.014l0.052-0.009
		c0.545-0.091,0.912-0.607,0.821-1.152C42.996,2.563,42.573,2.218,42.094,2.218L42.094,2.218z M38.209,3.039
		c-0.083,0-0.166,0.01-0.249,0.032c-0.018,0.004-0.036,0.009-0.054,0.014c-0.535,0.137-0.857,0.682-0.72,1.217
		c0.116,0.452,0.523,0.751,0.969,0.751c0.082,0,0.166-0.01,0.249-0.031l0.051-0.013c0.535-0.137,0.857-0.682,0.721-1.217
		C39.061,3.339,38.655,3.039,38.209,3.039L38.209,3.039z M34.408,4.184c-0.109,0-0.22,0.018-0.329,0.056
		c-0.017,0.006-0.035,0.012-0.052,0.018c-0.521,0.182-0.797,0.752-0.615,1.273c0.144,0.413,0.531,0.671,0.945,0.671
		c0.109,0,0.22-0.018,0.329-0.056l0.05-0.017c0.521-0.182,0.797-0.752,0.616-1.273C35.208,4.442,34.821,4.184,34.408,4.184
		L34.408,4.184z M30.716,5.645c-0.135,0-0.272,0.027-0.403,0.085c-0.018,0.008-0.037,0.017-0.055,0.025
		c-0.503,0.226-0.729,0.816-0.504,1.32c0.167,0.372,0.532,0.592,0.914,0.592c0.136,0,0.275-0.028,0.407-0.087l0.048-0.021
		c0.504-0.225,0.731-0.816,0.506-1.321C31.464,5.865,31.099,5.645,30.716,5.645L30.716,5.645z M27.161,7.411
		c-0.163,0-0.329,0.04-0.481,0.124c-0.007,0.004-0.014,0.008-0.021,0.011c-0.007,0.004-0.014,0.008-0.021,0.011
		c-0.002,0.001-0.005,0.003-0.007,0.004c-0.483,0.267-0.659,0.875-0.393,1.358c0.183,0.331,0.524,0.518,0.877,0.518
		c0.164,0,0.329-0.04,0.482-0.125l0.046-0.025c0.483-0.267,0.66-0.875,0.394-1.359C27.855,7.598,27.513,7.411,27.161,7.411
		L27.161,7.411z M23.766,9.469c-0.19,0-0.382,0.054-0.552,0.167c-0.015,0.01-0.033,0.022-0.048,0.032
		c-0.459,0.306-0.583,0.926-0.277,1.386c0.193,0.289,0.51,0.446,0.833,0.446c0.19,0,0.383-0.054,0.553-0.168l0.044-0.029
		c0.46-0.306,0.584-0.927,0.279-1.387C24.406,9.626,24.089,9.469,23.766,9.469L23.766,9.469z M20.554,11.804
		c-0.218,0-0.437,0.071-0.621,0.216c-0.008,0.007-0.017,0.013-0.025,0.02c-0.008,0.007-0.014,0.011-0.022,0.018
		c-0.429,0.344-0.5,0.97-0.157,1.401c0.197,0.249,0.489,0.378,0.784,0.378c0.218,0,0.438-0.071,0.622-0.217l0.041-0.033
		c0.433-0.343,0.505-0.973,0.162-1.405C21.141,11.934,20.849,11.804,20.554,11.804L20.554,11.804z M17.548,14.398
		c-0.245,0-0.491,0.09-0.684,0.271l-0.001,0.001c-0.013,0.012-0.025,0.023-0.038,0.036l-0.002,0.001
		c-0.402,0.378-0.421,1.011-0.043,1.413c0.197,0.209,0.463,0.315,0.729,0.315c0.246,0,0.492-0.09,0.685-0.271l0.039-0.036
		c0.402-0.378,0.422-1.011,0.044-1.414C18.081,14.504,17.815,14.398,17.548,14.398L17.548,14.398z M14.769,17.233
		c-0.273,0-0.545,0.111-0.743,0.331c-0.005,0.005-0.01,0.011-0.015,0.017c-0.008,0.009-0.016,0.017-0.024,0.026
		c-0.367,0.41-0.333,1.041,0.076,1.409c0.191,0.172,0.43,0.257,0.669,0.257c0.273,0,0.546-0.111,0.744-0.331l0.035-0.039
		c0.37-0.411,0.337-1.043-0.073-1.413C15.247,17.318,15.007,17.233,14.769,17.233L14.769,17.233z M12.234,20.289
		c-0.301,0-0.598,0.136-0.795,0.393c-0.009,0.012-0.019,0.025-0.028,0.037c-0.002,0.003-0.004,0.005-0.006,0.008
		c-0.334,0.439-0.249,1.067,0.191,1.401c0.181,0.137,0.394,0.204,0.604,0.204c0.302,0,0.6-0.136,0.797-0.395l0.032-0.042
		c0.334-0.439,0.249-1.067-0.19-1.401C12.658,20.356,12.445,20.289,12.234,20.289L12.234,20.289z M9.963,23.545
		c-0.331,0-0.654,0.164-0.844,0.463c-0.005,0.008-0.01,0.016-0.015,0.023c-0.005,0.007-0.01,0.015-0.015,0.023
		c-0.296,0.466-0.159,1.083,0.307,1.38c0.167,0.106,0.352,0.156,0.536,0.156c0.331,0,0.654-0.164,0.845-0.463l0.028-0.044
		c0.296-0.466,0.159-1.084-0.307-1.381C10.333,23.596,10.146,23.545,9.963,23.545L9.963,23.545z M7.971,26.98
		c-0.358,0-0.705,0.194-0.884,0.533c-0.009,0.018-0.02,0.037-0.028,0.054c-0.254,0.489-0.065,1.091,0.423,1.347
		c0.148,0.078,0.307,0.114,0.463,0.114c0.36,0,0.708-0.195,0.887-0.536l0.024-0.046c0.256-0.489,0.068-1.094-0.421-1.351
		C8.287,27.017,8.128,26.98,7.971,26.98L7.971,26.98z M6.275,30.569c-0.389,0-0.758,0.228-0.919,0.608
		c-0.007,0.016-0.012,0.027-0.019,0.043c-0.001,0.004-0.003,0.008-0.004,0.011c-0.215,0.509,0.024,1.095,0.533,1.31
		c0.127,0.053,0.258,0.079,0.388,0.079c0.39,0,0.761-0.23,0.922-0.612l0.021-0.049c0.214-0.509-0.024-1.096-0.533-1.31
		C6.536,30.595,6.405,30.569,6.275,30.569L6.275,30.569z M4.886,34.289c-0.421,0-0.813,0.268-0.95,0.69
		c-0.004,0.013-0.008,0.025-0.012,0.038c-0.002,0.006-0.004,0.013-0.006,0.019c-0.168,0.524,0.119,1.086,0.643,1.256
		c0.103,0.033,0.207,0.049,0.309,0.049c0.421,0,0.814-0.269,0.951-0.691l0.017-0.05c0.17-0.525-0.117-1.089-0.642-1.261
		C5.093,34.305,4.989,34.289,4.886,34.289L4.886,34.289z M3.816,38.111c-0.453,0-0.862,0.31-0.971,0.769
		c-0.001,0.004-0.001,0.006-0.002,0.01c-0.003,0.012-0.006,0.024-0.009,0.037c-0.001,0.004-0.002,0.009-0.003,0.013
		c-0.124,0.537,0.21,1.072,0.747,1.198c0.076,0.018,0.153,0.026,0.229,0.026c0.454,0,0.865-0.312,0.973-0.773l0.012-0.051
		c0.126-0.538-0.208-1.076-0.746-1.202C3.969,38.12,3.892,38.111,3.816,38.111L3.816,38.111z M3.071,42.011
		c-0.488,0-0.915,0.357-0.987,0.854c-0.003,0.018-0.005,0.036-0.008,0.054c-0.08,0.546,0.298,1.054,0.844,1.134
		c0.049,0.007,0.098,0.011,0.146,0.011c0.488,0,0.916-0.358,0.989-0.855l0.008-0.052c0.08-0.546-0.297-1.055-0.844-1.135
		C3.169,42.015,3.12,42.011,3.071,42.011L3.071,42.011z M2.656,45.959c-0.523,0-0.963,0.408-0.997,0.937c0,0.005,0,0.01-0.001,0.015
		c-0.001,0.016-0.001,0.027-0.002,0.043c-0.033,0.55,0.386,1.022,0.936,1.057c0.021,0.001,0.042,0.002,0.063,0.002
		c0.524,0,0.964-0.408,0.998-0.938l0.003-0.053c0.035-0.551-0.384-1.026-0.936-1.061C2.699,45.96,2.678,45.959,2.656,45.959
		L2.656,45.959z M2.571,49.931c-0.006,0-0.013,0-0.02,0c-0.551,0.01-0.989,0.464-0.98,1.015c0,0.015,0,0.031,0,0.046
		c0,0.005,0,0.009,0,0.014c0.011,0.545,0.456,0.979,0.999,0.979c0.007,0,0.014,0,0.021-0.001c0.552-0.011,0.991-0.468,0.98-1.02
		l-0.001-0.053C3.56,50.366,3.114,49.931,2.571,49.931L2.571,49.931z M2.812,53.895c-0.034,0-0.068,0.002-0.103,0.006
		c-0.548,0.056-0.947,0.545-0.893,1.092c0.001,0.01,0.002,0.017,0.003,0.025c0,0.006,0.001,0.013,0.002,0.019
		c0,0.008,0.001,0.012,0.002,0.02c0.055,0.512,0.488,0.893,0.992,0.893c0.035,0,0.069-0.001,0.104-0.005
		c0.549-0.057,0.949-0.549,0.892-1.098l-0.005-0.053C3.753,54.278,3.318,53.895,2.812,53.895L2.812,53.895z M3.381,57.824
		c-0.061,0-0.124,0.006-0.186,0.018c-0.542,0.102-0.898,0.622-0.798,1.164c0.003,0.015,0.006,0.032,0.009,0.048
		c0,0.003,0.001,0.006,0.001,0.009c0.091,0.48,0.51,0.814,0.981,0.814c0.062,0,0.125-0.006,0.187-0.018
		c0.543-0.103,0.9-0.626,0.797-1.168l-0.01-0.052C4.273,58.159,3.853,57.824,3.381,57.824L3.381,57.824z M4.278,61.69
		c-0.088,0-0.178,0.012-0.268,0.036c-0.532,0.147-0.844,0.699-0.696,1.23c0.001,0.004,0.002,0.008,0.003,0.012
		c0,0.001,0.001,0.002,0.001,0.004l0,0C3.321,62.982,3.324,62.99,3.326,63c0.001,0.003,0.002,0.007,0.003,0.011
		c0.123,0.442,0.525,0.732,0.962,0.732c0.089,0,0.179-0.012,0.269-0.037c0.532-0.148,0.844-0.699,0.696-1.231l-0.014-0.051
		C5.119,61.98,4.717,61.69,4.278,61.69L4.278,61.69z M5.498,65.468c-0.115,0-0.232,0.021-0.347,0.062
		c-0.518,0.192-0.782,0.768-0.59,1.285c0.006,0.018,0.013,0.034,0.019,0.052c0.149,0.402,0.531,0.652,0.937,0.652
		c0.116,0,0.233-0.021,0.348-0.063c0.518-0.192,0.782-0.768,0.589-1.285l-0.018-0.05C6.287,65.718,5.904,65.468,5.498,65.468
		L5.498,65.468z M7.031,69.13c-0.142,0-0.287,0.03-0.424,0.095c-0.499,0.234-0.714,0.827-0.481,1.326
		c0.008,0.019,0.018,0.038,0.026,0.056c0.171,0.361,0.529,0.572,0.904,0.572c0.143,0,0.288-0.03,0.425-0.096
		c0.5-0.235,0.714-0.831,0.479-1.331l-0.022-0.047C7.767,69.342,7.407,69.13,7.031,69.13L7.031,69.13z M8.867,72.649
		c-0.169,0-0.341,0.043-0.499,0.134C7.891,73.059,7.726,73.668,8,74.146c0.005,0.01,0.011,0.019,0.016,0.028
		c0.004,0.008,0.008,0.015,0.013,0.022c0.185,0.32,0.521,0.5,0.867,0.5c0.169,0,0.342-0.043,0.499-0.134
		c0.479-0.276,0.642-0.889,0.366-1.367L9.734,73.15C9.549,72.829,9.213,72.649,8.867,72.649L8.867,72.649z M10.991,76.004
		c-0.197,0-0.396,0.058-0.569,0.178c-0.453,0.314-0.566,0.937-0.252,1.39c0.009,0.013,0.016,0.022,0.024,0.035
		c0.002,0.004,0.005,0.008,0.008,0.012c0.194,0.28,0.505,0.43,0.822,0.43c0.197,0,0.396-0.058,0.57-0.179
		c0.453-0.315,0.565-0.938,0.25-1.393l-0.03-0.043C11.62,76.153,11.308,76.004,10.991,76.004L10.991,76.004z M13.389,79.169
		c-0.224,0-0.45,0.075-0.636,0.229c-0.426,0.352-0.486,0.981-0.134,1.407c0.007,0.01,0.015,0.019,0.022,0.028
		c0.001,0.001,0.003,0.003,0.004,0.004c0.003,0.004,0.006,0.007,0.008,0.011c0.198,0.239,0.483,0.363,0.771,0.363
		c0.224,0,0.45-0.075,0.636-0.229c0.426-0.353,0.485-0.982,0.134-1.408l-0.034-0.041C13.963,79.293,13.677,79.169,13.389,79.169
		L13.389,79.169z M16.042,82.124c-0.252,0-0.504,0.095-0.699,0.284c-0.394,0.385-0.403,1.016-0.02,1.41
		c0.006,0.007,0.011,0.012,0.017,0.018c0.001,0.001,0.001,0.002,0.002,0.003c0.007,0.008,0.018,0.018,0.025,0.025
		c0.195,0.198,0.454,0.298,0.712,0.298c0.252,0,0.504-0.095,0.699-0.284c0.395-0.387,0.402-1.02,0.016-1.415l-0.037-0.037
		C16.562,82.225,16.301,82.124,16.042,82.124L16.042,82.124z M18.931,84.849c-0.28,0-0.559,0.116-0.756,0.345
		c-0.361,0.416-0.317,1.046,0.098,1.407c0.015,0.014,0.033,0.028,0.047,0.042c0.189,0.162,0.42,0.241,0.651,0.241
		c0.28,0,0.558-0.117,0.756-0.346c0.361-0.417,0.316-1.049-0.101-1.411l-0.04-0.034C19.396,84.929,19.163,84.849,18.931,84.849
		L18.931,84.849z M22.036,87.323c-0.308,0-0.613,0.142-0.809,0.41c-0.326,0.445-0.229,1.071,0.218,1.396
		c0.006,0.005,0.013,0.01,0.02,0.015c0.008,0.007,0.017,0.013,0.026,0.02c0.177,0.129,0.383,0.19,0.587,0.19
		c0.309,0,0.613-0.142,0.808-0.41c0.326-0.446,0.228-1.072-0.218-1.397l-0.042-0.031C22.447,87.386,22.241,87.323,22.036,87.323
		L22.036,87.323z M25.337,89.53c-0.337,0-0.667,0.17-0.855,0.479c-0.288,0.472-0.138,1.087,0.333,1.374
		c0.002,0.001,0.005,0.003,0.008,0.005c0.016,0.009,0.027,0.017,0.043,0.025c0.161,0.098,0.339,0.145,0.515,0.145
		c0.337,0,0.667-0.171,0.855-0.48c0.287-0.472,0.137-1.087-0.334-1.375l-0.045-0.027C25.694,89.577,25.514,89.53,25.337,89.53
		L25.337,89.53z M28.81,91.453c-0.367,0-0.72,0.203-0.896,0.553c-0.247,0.494-0.047,1.094,0.446,1.341
		c0.001,0.001,0.003,0.002,0.004,0.002c0.015,0.008,0.03,0.016,0.046,0.023c0.144,0.071,0.296,0.105,0.446,0.105
		c0.367,0,0.72-0.203,0.895-0.554c0.247-0.494,0.046-1.095-0.448-1.342l-0.047-0.023C29.112,91.487,28.96,91.453,28.81,91.453
		L28.81,91.453z M32.431,93.078c-0.397,0-0.773,0.238-0.93,0.63c-0.205,0.513,0.045,1.095,0.559,1.299
		c0.003,0.001,0.006,0.003,0.01,0.004c0.013,0.005,0.028,0.012,0.042,0.017c0.121,0.048,0.246,0.071,0.369,0.071
		c0.397,0,0.773-0.239,0.929-0.631c0.204-0.513-0.046-1.095-0.56-1.299l-0.049-0.02C32.68,93.101,32.554,93.078,32.431,93.078
		L32.431,93.078z M36.176,94.392c-0.429,0-0.826,0.278-0.957,0.71c-0.16,0.527,0.136,1.085,0.663,1.246
		c0.012,0.004,0.021,0.007,0.033,0.01c0.002,0.001,0.004,0.002,0.007,0.003c0.001,0,0.002,0,0.004,0.001
		c0.004,0.001,0.008,0.002,0.012,0.004c0.097,0.029,0.195,0.043,0.291,0.043c0.429,0,0.826-0.278,0.957-0.71
		c0.16-0.528-0.139-1.087-0.667-1.247l-0.05-0.016C36.371,94.406,36.272,94.392,36.176,94.392L36.176,94.392z M40.019,95.386
		c-0.461,0-0.877,0.321-0.978,0.791c-0.115,0.54,0.229,1.071,0.769,1.188c0.016,0.003,0.033,0.007,0.049,0.01
		c0.001,0.001,0.003,0.001,0.005,0.001c0.07,0.016,0.141,0.022,0.209,0.022c0.462,0,0.876-0.321,0.977-0.791
		c0.115-0.541-0.229-1.072-0.77-1.188l-0.052-0.011C40.158,95.394,40.088,95.386,40.019,95.386L40.019,95.386z M43.932,96.054
		c-0.496,0-0.927,0.368-0.991,0.873c-0.07,0.547,0.315,1.047,0.861,1.118c0.008,0.001,0.016,0.002,0.023,0.003
		c0.012,0.001,0.023,0.003,0.035,0.004c0.043,0.006,0.085,0.009,0.127,0.009c0.496,0,0.926-0.369,0.99-0.874
		c0.069-0.548-0.319-1.049-0.867-1.118l-0.052-0.007C44.017,96.056,43.974,96.053,43.932,96.054L43.932,96.054z M47.889,96.392
		c-0.532,0-0.975,0.42-0.999,0.957c-0.024,0.55,0.402,1.016,0.952,1.042c0.012,0,0.022,0.001,0.034,0.001
		c0.008,0,0.017,0.001,0.025,0.001h0c0.015,0.001,0.029,0.001,0.043,0.001c0.533,0,0.975-0.42,0.998-0.957
		c0.023-0.552-0.405-1.018-0.957-1.042l-0.053-0.002C47.918,96.392,47.903,96.392,47.889,96.392L47.889,96.392z M51.916,96.399
		c-0.014,0-0.026,0-0.04,0.001l-0.053,0.002c-0.552,0.021-0.981,0.486-0.961,1.038c0.021,0.539,0.464,0.961,0.998,0.961
		c0.014,0,0.026,0,0.04,0c0.004-0.001,0.009-0.001,0.013-0.001c0.012,0,0.02-0.001,0.031-0.001c0.004,0,0.007-0.001,0.011-0.001
		c0.552-0.021,0.981-0.486,0.96-1.038C52.894,96.822,52.45,96.399,51.916,96.399L51.916,96.399z M55.873,96.078
		c-0.04,0-0.081,0.002-0.123,0.007l-0.052,0.007c-0.549,0.067-0.938,0.566-0.871,1.114c0.062,0.507,0.492,0.878,0.99,0.878
		c0.041,0,0.082-0.002,0.123-0.007c0.002,0,0.003-0.001,0.004-0.001c0.015-0.002,0.028-0.003,0.043-0.005
		c0.003,0,0.005-0.001,0.008-0.001c0.548-0.067,0.938-0.566,0.87-1.114C56.803,96.449,56.371,96.077,55.873,96.078L55.873,96.078z
		 M59.79,95.427c-0.068,0-0.137,0.007-0.206,0.021l-0.052,0.011c-0.54,0.112-0.887,0.643-0.774,1.184
		c0.099,0.472,0.514,0.795,0.978,0.795c0.066,0,0.134-0.006,0.201-0.021c0.02-0.004,0.04-0.008,0.061-0.012
		c0.539-0.114,0.885-0.644,0.771-1.184C60.669,95.75,60.254,95.427,59.79,95.427L59.79,95.427z M63.637,94.448
		c-0.096,0-0.191,0.014-0.287,0.043l-0.051,0.015c-0.529,0.158-0.83,0.716-0.672,1.245c0.129,0.434,0.526,0.714,0.957,0.714
		c0.094,0,0.188-0.014,0.283-0.041c0.021-0.007,0.04-0.013,0.061-0.019c0.526-0.16,0.825-0.716,0.667-1.243
		C64.465,94.729,64.066,94.448,63.637,94.448L63.637,94.448z M67.387,93.15c-0.121,0-0.245,0.022-0.365,0.069l-0.05,0.02
		c-0.514,0.202-0.767,0.782-0.564,1.297c0.154,0.394,0.531,0.634,0.931,0.634c0.121,0,0.245-0.022,0.365-0.069
		c0.012-0.005,0.023-0.009,0.034-0.014c0.006-0.002,0.015-0.006,0.021-0.008c0.512-0.204,0.763-0.782,0.561-1.295
		C68.163,93.391,67.786,93.15,67.387,93.15L67.387,93.15z M71.015,91.54c-0.148,0-0.3,0.034-0.442,0.104l-0.047,0.023
		c-0.495,0.244-0.698,0.844-0.454,1.34c0.174,0.353,0.528,0.557,0.896,0.557c0.149,0,0.3-0.033,0.442-0.104
		c0.007-0.003,0.013-0.006,0.02-0.01c0.011-0.005,0.022-0.011,0.034-0.017c0.492-0.246,0.693-0.844,0.448-1.337
		C71.738,91.745,71.384,91.54,71.015,91.54L71.015,91.54z M74.496,89.632c-0.176,0-0.354,0.046-0.516,0.144l-0.046,0.027
		c-0.473,0.285-0.625,0.9-0.34,1.373c0.188,0.312,0.519,0.483,0.857,0.483c0.174,0,0.351-0.045,0.511-0.141
		c0.019-0.012,0.036-0.022,0.055-0.033c0.471-0.286,0.621-0.899,0.336-1.37C75.165,89.804,74.835,89.632,74.496,89.632
		L74.496,89.632z M77.806,87.438c-0.203,0-0.409,0.062-0.586,0.189l-0.043,0.031c-0.447,0.324-0.548,0.949-0.224,1.396
		c0.195,0.271,0.501,0.414,0.811,0.414c0.202,0,0.406-0.061,0.582-0.188c0.01-0.008,0.022-0.017,0.032-0.023
		c0.005-0.004,0.01-0.008,0.016-0.011c0.447-0.324,0.547-0.949,0.223-1.396C78.421,87.582,78.115,87.438,77.806,87.438
		L77.806,87.438z M80.921,84.977c-0.23,0-0.463,0.079-0.651,0.241l-0.04,0.034c-0.419,0.36-0.467,0.992-0.107,1.411
		c0.198,0.23,0.478,0.349,0.759,0.349c0.229,0,0.46-0.079,0.648-0.239c0.005-0.004,0.012-0.01,0.016-0.014
		c0.002-0.001,0.003-0.002,0.004-0.004c0.005-0.004,0.007-0.006,0.012-0.01c0.001,0,0.001,0,0.001-0.001
		c0.001-0.001,0.002-0.001,0.003-0.002c0.003-0.003,0.006-0.005,0.01-0.008c0.419-0.36,0.466-0.991,0.105-1.41
		C81.482,85.095,81.202,84.977,80.921,84.977L80.921,84.977z M83.821,82.264c-0.259,0-0.517,0.1-0.713,0.299L83.071,82.6
		c-0.388,0.394-0.383,1.027,0.011,1.415c0.194,0.191,0.448,0.287,0.701,0.287c0.258,0,0.515-0.099,0.71-0.295
		c0.004-0.004,0.009-0.01,0.013-0.014c0.01-0.01,0.02-0.019,0.028-0.028c0.388-0.394,0.383-1.026-0.011-1.414
		C84.328,82.359,84.075,82.264,83.821,82.264L83.821,82.264z M86.486,79.319c-0.287,0-0.571,0.123-0.77,0.36l-0.033,0.041
		c-0.354,0.424-0.297,1.055,0.128,1.408c0.187,0.156,0.414,0.232,0.64,0.232c0.286,0,0.57-0.123,0.768-0.359
		c0.009-0.011,0.017-0.021,0.025-0.031c0.004-0.004,0.007-0.008,0.011-0.012c0.353-0.425,0.295-1.055-0.129-1.408
		C86.938,79.396,86.712,79.319,86.486,79.319L86.486,79.319z M88.896,76.164c-0.315,0-0.626,0.148-0.82,0.427l-0.03,0.043
		c-0.316,0.452-0.207,1.076,0.245,1.394c0.175,0.122,0.375,0.181,0.573,0.181c0.313,0,0.623-0.147,0.817-0.424
		c0.013-0.017,0.024-0.033,0.036-0.051c0.313-0.452,0.203-1.073-0.248-1.389C89.295,76.223,89.095,76.164,88.896,76.164
		L88.896,76.164z M91.035,72.818c-0.345,0-0.68,0.179-0.865,0.497l-0.027,0.046c-0.277,0.478-0.116,1.09,0.361,1.368
		c0.158,0.092,0.331,0.136,0.502,0.136c0.344,0,0.677-0.177,0.863-0.494c0.01-0.017,0.021-0.035,0.03-0.053
		c0.276-0.477,0.114-1.087-0.362-1.364C91.379,72.862,91.206,72.818,91.035,72.818L91.035,72.818z M92.886,69.307
		c-0.375,0-0.733,0.211-0.905,0.571l-0.022,0.048c-0.236,0.498-0.024,1.095,0.475,1.332c0.138,0.066,0.284,0.098,0.429,0.098
		c0.373,0,0.731-0.211,0.903-0.571c0.001-0.003,0.002-0.006,0.004-0.009c0.007-0.015,0.014-0.029,0.021-0.045
		c0.233-0.498,0.021-1.092-0.477-1.327C93.175,69.338,93.029,69.307,92.886,69.307L92.886,69.307z M94.434,65.651
		c-0.404,0-0.786,0.247-0.937,0.648l-0.019,0.05c-0.194,0.517,0.067,1.094,0.584,1.288c0.116,0.044,0.235,0.064,0.353,0.064
		c0.402,0,0.782-0.246,0.934-0.645c0.007-0.019,0.015-0.037,0.021-0.056c0.193-0.518-0.068-1.093-0.585-1.287
		C94.669,65.672,94.551,65.651,94.434,65.651L94.434,65.651z M95.669,61.879c-0.437,0-0.839,0.288-0.963,0.729l-0.015,0.051
		c-0.149,0.531,0.16,1.084,0.691,1.234c0.091,0.025,0.183,0.038,0.272,0.038c0.436,0,0.835-0.287,0.96-0.726
		c0.005-0.017,0.009-0.031,0.014-0.048c0.001-0.003,0.002-0.006,0.002-0.008c0.15-0.532-0.159-1.084-0.69-1.233
		C95.85,61.891,95.759,61.879,95.669,61.879L95.669,61.879z M96.581,58.016c-0.47,0-0.889,0.333-0.981,0.812l-0.01,0.052
		c-0.104,0.542,0.25,1.066,0.793,1.172c0.063,0.013,0.128,0.019,0.19,0.019c0.47,0,0.888-0.332,0.98-0.811
		c0.001-0.004,0.001-0.008,0.002-0.012c0.003-0.015,0.006-0.031,0.009-0.047c0.103-0.54-0.252-1.062-0.793-1.166
		C96.708,58.021,96.645,58.016,96.581,58.016L96.581,58.016z M97.167,54.09c-0.505,0-0.938,0.381-0.993,0.894l-0.006,0.053
		c-0.059,0.549,0.338,1.042,0.888,1.102c0.036,0.004,0.072,0.006,0.108,0.006c0.503,0,0.935-0.379,0.992-0.89
		c0.002-0.021,0.004-0.042,0.007-0.062c0.056-0.548-0.341-1.038-0.889-1.097C97.238,54.092,97.202,54.09,97.167,54.09L97.167,54.09z
		 M97.425,50.126c-0.542,0-0.987,0.432-1,0.977l-0.001,0.052c-0.014,0.553,0.423,1.011,0.976,1.024c0.008,0,0.017,0,0.024,0
		c0.541,0,0.986-0.432,0.999-0.976c0-0.004,0-0.009,0-0.013c0.001-0.017,0.001-0.03,0.001-0.046
		c0.011-0.551-0.425-1.006-0.976-1.019C97.44,50.126,97.433,50.126,97.425,50.126L97.425,50.126z M97.355,46.154
		c-0.021,0-0.04,0-0.061,0.002c-0.551,0.033-0.972,0.506-0.939,1.057l0.003,0.053c0.031,0.532,0.472,0.942,0.998,0.942
		c0.02,0,0.039,0,0.059-0.001c0.552-0.032,0.973-0.505,0.94-1.056c-0.001-0.018-0.002-0.035-0.004-0.053v-0.003
		C98.32,46.564,97.88,46.154,97.355,46.154L97.355,46.154z M96.956,42.204c-0.047,0-0.095,0.003-0.143,0.01
		c-0.547,0.079-0.927,0.585-0.849,1.132l0.007,0.052c0.071,0.499,0.5,0.859,0.99,0.859c0.047,0,0.094-0.003,0.142-0.01
		c0.546-0.078,0.926-0.583,0.849-1.128c-0.002-0.019-0.006-0.041-0.008-0.06C97.871,42.562,97.444,42.204,96.956,42.204
		L96.956,42.204z M96.228,38.301c-0.074,0-0.149,0.008-0.225,0.026c-0.539,0.124-0.875,0.661-0.751,1.199l0.012,0.051
		c0.106,0.463,0.519,0.777,0.975,0.777c0.074,0,0.149-0.008,0.225-0.025c0.537-0.124,0.872-0.657,0.751-1.194
		c-0.004-0.02-0.009-0.041-0.014-0.061C97.093,38.613,96.683,38.301,96.228,38.301L96.228,38.301z M95.174,34.474
		c-0.102,0-0.205,0.016-0.307,0.048c-0.525,0.169-0.815,0.732-0.646,1.258l0.016,0.05c0.137,0.425,0.53,0.695,0.953,0.695
		c0.101,0,0.204-0.015,0.305-0.048c0.526-0.168,0.816-0.731,0.647-1.257c-0.002-0.007-0.005-0.015-0.007-0.022
		c-0.002-0.004-0.002-0.007-0.004-0.011l0,0c-0.001-0.003-0.002-0.006-0.003-0.009c-0.001-0.003-0.002-0.007-0.003-0.01
		C95.989,34.745,95.597,34.474,95.174,34.474L95.174,34.474z M93.801,30.75c-0.129,0-0.259,0.025-0.385,0.077
		c-0.51,0.213-0.751,0.798-0.539,1.308l0.021,0.049c0.16,0.384,0.532,0.616,0.925,0.616c0.128,0,0.258-0.025,0.383-0.077
		c0.511-0.212,0.752-0.797,0.539-1.307c-0.001-0.003-0.002-0.006-0.004-0.009c0-0.001-0.001-0.004-0.002-0.005
		c-0.003-0.008-0.007-0.016-0.01-0.024c-0.002-0.004-0.005-0.012-0.007-0.016C94.562,30.979,94.19,30.75,93.801,30.75L93.801,30.75z
		 M92.119,27.153c-0.155,0-0.313,0.036-0.461,0.113c-0.489,0.255-0.681,0.859-0.427,1.349l0.024,0.046
		c0.179,0.343,0.527,0.54,0.89,0.54c0.154,0,0.312-0.036,0.459-0.112c0.49-0.254,0.682-0.858,0.428-1.348
		c-0.006-0.01-0.011-0.02-0.017-0.03c-0.004-0.008-0.007-0.014-0.011-0.021C92.826,27.349,92.479,27.153,92.119,27.153
		L92.119,27.153z M90.142,23.71c-0.183,0-0.367,0.05-0.532,0.155c-0.468,0.294-0.607,0.912-0.312,1.379l0.028,0.045
		c0.189,0.302,0.515,0.467,0.847,0.467c0.183,0,0.367-0.05,0.532-0.154c0.467-0.294,0.607-0.909,0.314-1.376
		c-0.009-0.014-0.017-0.027-0.025-0.041c-0.002-0.003-0.004-0.006-0.005-0.008C90.798,23.875,90.474,23.71,90.142,23.71
		L90.142,23.71z M87.884,20.445c-0.21,0-0.421,0.066-0.602,0.202c-0.44,0.333-0.528,0.96-0.196,1.401l0.032,0.042
		c0.196,0.261,0.496,0.398,0.8,0.398c0.209,0,0.421-0.065,0.601-0.201c0.44-0.332,0.529-0.957,0.199-1.397
		c-0.008-0.01-0.016-0.021-0.023-0.03c-0.004-0.005-0.008-0.011-0.012-0.016C88.486,20.582,88.187,20.445,87.884,20.445
		L87.884,20.445z M85.361,17.378c-0.236,0-0.475,0.084-0.666,0.254c-0.411,0.368-0.446,1.001-0.078,1.413l0.035,0.039
		c0.197,0.221,0.471,0.334,0.746,0.334c0.237,0,0.476-0.084,0.666-0.254c0.412-0.368,0.447-1,0.079-1.411c0,0,0,0,0-0.001
		c-0.01-0.011-0.021-0.023-0.031-0.035c-0.002-0.002-0.003-0.004-0.005-0.005C85.91,17.491,85.637,17.378,85.361,17.378
		L85.361,17.378z M82.594,14.532c-0.265,0-0.529,0.105-0.727,0.313c-0.379,0.401-0.362,1.034,0.039,1.414l0.038,0.036
		c0.193,0.183,0.441,0.274,0.688,0.274c0.265,0,0.529-0.104,0.726-0.312c0.379-0.399,0.363-1.03-0.034-1.41
		c-0.016-0.015-0.031-0.03-0.047-0.044C83.085,14.622,82.839,14.532,82.594,14.532L82.594,14.532z M79.599,11.926
		c-0.293,0-0.584,0.128-0.781,0.375c-0.345,0.431-0.275,1.061,0.156,1.406l0.041,0.033c0.185,0.148,0.405,0.22,0.625,0.22
		c0.293,0,0.584-0.128,0.781-0.375c0.345-0.431,0.275-1.06-0.155-1.405l-0.001-0.001c-0.007-0.005-0.014-0.01-0.02-0.016
		c-0.009-0.006-0.018-0.014-0.025-0.02C80.035,11.997,79.816,11.926,79.599,11.926L79.599,11.926z M76.396,9.578
		c-0.321,0-0.638,0.155-0.83,0.443c-0.308,0.458-0.186,1.08,0.272,1.388l0.044,0.029c0.171,0.115,0.365,0.17,0.557,0.17
		c0.322,0,0.639-0.155,0.831-0.442c0.308-0.458,0.188-1.077-0.269-1.386c-0.018-0.012-0.034-0.023-0.052-0.035
		C76.78,9.632,76.587,9.578,76.396,9.578L76.396,9.578z M73.01,7.505c-0.351,0-0.691,0.186-0.874,0.514
		c-0.269,0.483-0.095,1.092,0.388,1.36l0.047,0.026c0.153,0.085,0.32,0.126,0.485,0.126c0.351,0,0.691-0.186,0.875-0.514
		c0.269-0.481,0.096-1.089-0.385-1.358c-0.019-0.01-0.036-0.02-0.055-0.03C73.338,7.545,73.173,7.505,73.01,7.505L73.01,7.505z
		 M69.462,5.725c-0.381,0-0.745,0.219-0.912,0.589c-0.227,0.504-0.002,1.096,0.501,1.323L69.1,7.658
		c0.133,0.061,0.272,0.089,0.41,0.089c0.381,0,0.745-0.219,0.913-0.589c0.227-0.503,0.003-1.095-0.5-1.323
		c-0.017-0.007-0.033-0.015-0.051-0.022C69.739,5.753,69.6,5.725,69.462,5.725L69.462,5.725z M65.776,4.248
		c-0.412,0-0.798,0.256-0.942,0.667c-0.184,0.521,0.09,1.092,0.61,1.276l0.05,0.018c0.11,0.039,0.223,0.057,0.333,0.057
		c0.412,0,0.798-0.256,0.943-0.667c0.185-0.521-0.089-1.092-0.609-1.275c-0.001,0-0.003-0.001-0.004-0.001
		c-0.018-0.006-0.033-0.012-0.051-0.018C65.997,4.266,65.886,4.248,65.776,4.248L65.776,4.248z M61.979,3.087
		c-0.443,0-0.849,0.298-0.966,0.748c-0.14,0.534,0.182,1.081,0.716,1.22l0.051,0.013c0.085,0.022,0.17,0.033,0.253,0.033
		c0.444,0,0.85-0.298,0.968-0.748c0.14-0.534-0.18-1.079-0.713-1.219c-0.019-0.005-0.039-0.01-0.058-0.015
		C62.146,3.098,62.062,3.087,61.979,3.087L61.979,3.087z M58.099,2.25c-0.478,0-0.9,0.343-0.983,0.83
		c-0.094,0.544,0.271,1.062,0.815,1.156l0.052,0.009c0.058,0.01,0.115,0.015,0.172,0.015c0.478,0,0.9-0.343,0.984-0.83
		c0.094-0.544-0.271-1.061-0.814-1.155c-0.004,0-0.008-0.001-0.012-0.002c-0.016-0.002-0.032-0.005-0.048-0.008
		C58.209,2.255,58.153,2.25,58.099,2.25L58.099,2.25z M54.161,1.742c-0.513,0-0.949,0.392-0.994,0.913
		c-0.048,0.55,0.359,1.036,0.91,1.083l0.052,0.005c0.03,0.002,0.06,0.003,0.089,0.003c0.513,0,0.949-0.392,0.995-0.913
		c0.049-0.549-0.356-1.033-0.904-1.083c-0.013-0.001-0.027-0.002-0.04-0.003c-0.007,0-0.013-0.001-0.019-0.001
		C54.22,1.743,54.19,1.742,54.161,1.742L54.161,1.742z"/>
</g>
</svg>
