<?xml version="1.0" encoding="utf-8"?>
<!-- Generator: Adobe Illustrator 15.0.2, SVG Export Plug-In . SVG Version: 6.00 Build 0)  -->
<!DOCTYPE svg PUBLIC "-//W3C//DTD SVG 1.1//EN" "http://www.w3.org/Graphics/SVG/1.1/DTD/svg11.dtd">
<svg version="1.1" id="Layer_1" xmlns="http://www.w3.org/2000/svg" xmlns:xlink="http://www.w3.org/1999/xlink" x="0px" y="0px"
	 width="100px" height="100px" viewBox="0 0 100 100" enable-background="new 0 0 100 100" xml:space="preserve">
<circle fill="none" stroke="#A2FF00" stroke-width="0.7" stroke-miterlimit="10" cx="50" cy="49.857" r="48.438"/>
<path fill="#333333" d="M52.452,46.295c0,0.954-0.771,1.726-1.725,1.726c-0.955,0-1.728-0.771-1.728-1.726
	c0-0.953,0.772-1.727,1.728-1.727C51.68,44.568,52.452,45.342,52.452,46.295z M48.653,49.031l-3.412,3.413l0.826,0.829l2.586-2.586
	V49.031z M49,54.348v5.769h1.423v-5.769H49z M49,48.684v1.655v0.888V54h3.452v-2.773V50.34v-1.655v-0.004H49V48.684z M51.029,54.348
	v5.769h1.423v-5.769H51.029z M52.799,49.031v1.655l2.586,2.586l0.826-0.83L52.799,49.031z M82.065,45.992
	c0,0.954-0.772,1.727-1.726,1.727c-0.954,0-1.727-0.771-1.727-1.727c0-0.951,0.772-1.725,1.727-1.725
	C81.293,44.268,82.065,45.04,82.065,45.992z M78.613,54.047v5.768h1.424v-5.768H78.613z M78.613,48.382v1.655v0.888v2.773h3.452
	v-2.773v-0.887v-1.655v-0.005h-3.452V48.382z M80.642,54.047v5.768h1.424v-5.768H80.642z M82.412,48.391v4.813h1.176v-3.64
	L82.412,48.391z M82.412,48.378v0.013l0.013-0.013H82.412z M77.077,53.21h1.175v-4.822l-1.175,1.175V53.21z M78.249,48.385
	l0.004,0.003v-0.003H78.249z M22.401,45.992c0,0.954-0.772,1.727-1.726,1.727s-1.728-0.771-1.728-1.727
	c0-0.951,0.774-1.725,1.728-1.725S22.401,45.04,22.401,45.992z M18.95,54.047v5.768h1.423v-5.768H18.95z M18.95,48.382v1.655v0.888
	v2.773h3.453v-2.773v-0.887v-1.655v-0.005H18.95V48.382z M20.979,54.047v5.768h1.423v-5.768H20.979z M22.747,48.391v4.813h1.175
	v-3.64L22.747,48.391z M22.747,48.378v0.013l0.013-0.013H22.747z M17.413,53.21h1.176v-4.822l-1.176,1.175V53.21z M18.586,48.385
	l0.002,0.003v-0.003H18.586z M65.587,74.043c0,0.953-0.771,1.726-1.727,1.726c-0.953,0-1.726-0.772-1.726-1.726
	c0-0.955,0.771-1.727,1.726-1.727C64.815,72.316,65.587,73.088,65.587,74.043z M62.136,82.094v5.77h1.423v-5.77H62.136z
	 M62.136,76.431v1.655v0.888v2.774h3.452v-2.774v-0.888v-1.654v-0.006h-3.452V76.431z M64.166,82.094v5.77h1.422v-5.77H64.166z
	 M65.933,76.438v4.814h1.175v-3.639L65.933,76.438z M65.933,76.428v0.013l0.012-0.013H65.933z M60.6,81.259h1.174v-4.821
	L60.6,77.611V81.259z M61.771,76.433l0.003,0.004v-0.004H61.771z M65.587,19.217c0,0.954-0.771,1.727-1.727,1.727
	c-0.953,0-1.726-0.772-1.726-1.727c0-0.953,0.771-1.727,1.726-1.727C64.815,17.49,65.587,18.263,65.587,19.217z M62.136,27.27v5.77
	h1.423v-5.77H62.136z M62.136,21.604v1.657v0.888v2.773h3.452v-2.773v-0.888v-1.656v-0.004h-3.452V21.604z M64.166,27.27v5.77h1.422
	v-5.77H64.166z M65.933,21.614v4.813h1.175v-3.639L65.933,21.614z M65.933,21.602v0.013l0.012-0.013H65.933z M60.6,26.435h1.174
	v-4.823L60.6,22.786V26.435z M61.771,21.608l0.003,0.003v-0.003H61.771z M52.241,75.974c0,0.953-0.772,1.727-1.727,1.727
	c-0.952,0-1.725-0.772-1.725-1.727c0-0.951,0.772-1.726,1.725-1.726C51.469,74.248,52.241,75.021,52.241,75.974z M48.79,84.026
	v5.771h1.422v-5.771H48.79z M48.79,78.362v1.656v0.888v2.775h3.453v-2.775v-0.888v-1.653v-0.006H48.79V78.362z M50.818,84.026v5.771
	h1.425v-5.771H50.818z M52.588,78.371v4.815h1.174v-3.64L52.588,78.371z M52.588,78.359v0.013l0.013-0.013H52.588z M47.253,83.191
	h1.175V78.37l-1.175,1.174V83.191z M48.425,78.365l0.003,0.004v-0.004H48.425z M52.241,16.929c0,0.953-0.772,1.726-1.727,1.726
	c-0.952,0-1.725-0.772-1.725-1.726s0.772-1.727,1.725-1.727C51.469,15.204,52.241,15.978,52.241,16.929z M48.79,24.982v5.77h1.422
	v-5.77H48.79z M48.79,19.318v1.655v0.887v2.774h3.453v-2.773v-0.886v-1.656v-0.005H48.79V19.318z M50.818,24.982v5.77h1.425v-5.77
	H50.818z M52.588,19.328v4.814h1.174v-3.64L52.588,19.328z M52.588,19.314v0.013l0.013-0.013H52.588z M47.253,24.147h1.175v-4.823
	l-1.175,1.174V24.147z M48.425,19.322l0.003,0.003v-0.003H48.425z M76.765,65.226c0,0.951-0.773,1.727-1.728,1.727
	c-0.952,0-1.726-0.773-1.726-1.727c0-0.954,0.772-1.727,1.726-1.727C75.991,63.499,76.765,64.271,76.765,65.226z M73.312,73.278
	v5.77h1.425v-5.77H73.312z M73.312,67.613v1.656v0.889v2.773h3.453v-2.773v-0.888v-1.656v-0.003h-3.453V67.613z M75.343,73.278v5.77
	h1.423v-5.77H75.343z M77.111,67.623v4.812h1.175v-3.639L77.111,67.623z M77.111,67.611v0.013l0.013-0.013H77.111z M71.776,72.442
	h1.177v-4.823l-1.177,1.177V72.442z M72.948,67.617l0.005,0.002v-0.002H72.948z M76.765,26.99c0,0.953-0.773,1.726-1.728,1.726
	c-0.952,0-1.726-0.771-1.726-1.726c0-0.953,0.772-1.727,1.726-1.727C75.991,25.265,76.765,26.038,76.765,26.99z M73.312,35.045
	v5.769h1.425v-5.769H73.312z M73.312,29.38v1.655v0.887v2.774h3.453v-2.774v-0.887V29.38v-0.004h-3.453V29.38z M75.343,35.045v5.769
	h1.423v-5.769H75.343z M77.111,29.388v4.814h1.175v-3.639L77.111,29.388z M77.111,29.376v0.012l0.013-0.012H77.111z M71.776,34.209
	h1.177v-4.822l-1.177,1.175V34.209z M72.948,29.382l0.005,0.003v-0.003H72.948z M28.187,65.226c0,0.951-0.772,1.727-1.727,1.727
	s-1.726-0.773-1.726-1.727c0-0.954,0.771-1.727,1.726-1.727S28.187,64.271,28.187,65.226z M24.734,73.278v5.77h1.422v-5.77H24.734z
	 M24.734,67.613v1.656v0.889v2.773h3.452v-2.773v-0.888v-1.656v-0.003h-3.452V67.613z M26.763,73.278v5.77h1.424v-5.77H26.763z
	 M28.532,67.623v4.812h1.175v-3.639L28.532,67.623z M28.532,67.611v0.013l0.014-0.013H28.532z M23.197,72.442h1.175v-4.823
	l-1.175,1.177V72.442z M24.368,67.617l0.004,0.002v-0.002H24.368z M28.187,26.99c0,0.953-0.772,1.726-1.727,1.726
	s-1.726-0.771-1.726-1.726c0-0.953,0.771-1.727,1.726-1.727C27.414,25.265,28.187,26.038,28.187,26.99z M24.734,35.045v5.769h1.422
	v-5.769H24.734z M24.734,29.38v1.655v0.887v2.774h3.452v-2.774v-0.887V29.38v-0.004h-3.452V29.38z M26.763,35.045v5.769h1.424
	v-5.769H26.763z M28.532,29.388v4.814h1.175v-3.639L28.532,29.388z M28.532,29.376v0.012l0.014-0.012H28.532z M23.197,34.209h1.175
	v-4.822l-1.175,1.175V34.209z M24.368,29.382l0.004,0.003v-0.003H24.368z M39.378,74.043c0,0.953-0.772,1.726-1.726,1.726
	s-1.726-0.772-1.726-1.726c0-0.955,0.772-1.727,1.726-1.727S39.378,73.088,39.378,74.043z M35.927,82.094v5.77h1.423v-5.77H35.927z
	 M35.927,76.431v1.655v0.888v2.774h3.453v-2.774v-0.888v-1.654v-0.006h-3.453V76.431z M37.956,82.094v5.77h1.422v-5.77H37.956z
	 M39.725,76.438v4.814h1.174v-3.639L39.725,76.438z M39.725,76.428v0.013l0.013-0.013H39.725z M34.391,81.259h1.174v-4.821
	l-1.174,1.174V81.259z M35.562,76.433l0.003,0.004v-0.004H35.562z M39.378,19.217c0,0.954-0.772,1.727-1.726,1.727
	s-1.726-0.772-1.726-1.727c0-0.953,0.772-1.727,1.726-1.727S39.378,18.264,39.378,19.217z M35.927,27.27v5.77h1.423v-5.77H35.927z
	 M35.927,21.604v1.657v0.888v2.773h3.453v-2.773v-0.888v-1.656v-0.004h-3.453V21.604z M37.956,27.27v5.77h1.422v-5.77H37.956z
	 M39.725,21.614v4.813h1.174v-3.639L39.725,21.614z M39.725,21.602v0.013l0.013-0.013H39.725z M34.391,26.435h1.174v-4.823
	l-1.174,1.175V26.435z M35.562,21.608l0.003,0.003v-0.003H35.562z"/>
<polygon fill="#A2FF00" points="64.751,67.027 63.871,65.039 62.991,63.049 62.47,63.57 58.304,59.405 57.128,60.58 61.294,64.747 
	60.773,65.268 62.762,66.148 "/>
<polygon fill="#A2FF00" points="50.786,72.816 51.571,70.788 52.355,68.759 51.618,68.758 51.617,62.867 49.956,62.866 
	49.955,68.76 49.218,68.76 50.002,70.788 "/>
<polygon fill="#A2FF00" points="36.742,67.027 38.73,66.148 40.72,65.268 40.199,64.746 44.364,60.58 43.189,59.405 39.022,63.57 
	38.502,63.05 37.621,65.039 "/>
<polygon fill="#A2FF00" points="30.802,53.563 32.83,54.348 34.859,55.133 34.859,54.396 40.75,54.395 40.751,52.732 34.859,52.731 
	34.859,51.995 32.83,52.778 "/>
<polygon fill="#A2FF00" points="70.652,53.562 68.624,52.777 66.595,51.992 66.594,52.73 60.703,52.73 60.703,54.393 66.595,54.395 
	66.595,55.13 68.624,54.347 "/>
<polygon fill="#A2FF00" points="36.782,39.646 37.661,41.635 38.542,43.625 39.063,43.104 43.229,47.269 44.404,46.094 
	40.238,41.927 40.76,41.406 38.771,40.525 "/>
<polygon fill="#A2FF00" points="50.746,32.817 49.962,34.846 49.178,36.875 49.914,36.876 49.915,42.767 51.576,42.768 
	51.578,36.874 52.314,36.874 51.531,34.846 "/>
<polygon fill="#A2FF00" points="64.751,39.646 62.762,40.525 60.772,41.406 61.293,41.928 57.128,46.093 58.303,47.269 
	62.47,43.104 62.991,43.624 63.871,41.635 "/>
</svg>
