<?xml version="1.0" encoding="utf-8"?>
<!-- Generator: Adobe Illustrator 15.0.2, SVG Export Plug-In . SVG Version: 6.00 Build 0)  -->
<!DOCTYPE svg PUBLIC "-//W3C//DTD SVG 1.1//EN" "http://www.w3.org/Graphics/SVG/1.1/DTD/svg11.dtd">
<svg version="1.1" id="Layer_1" xmlns="http://www.w3.org/2000/svg" xmlns:xlink="http://www.w3.org/1999/xlink" x="0px" y="0px"
	 width="100px" height="100px" viewBox="0 0 100 100" enable-background="new 0 0 100 100" xml:space="preserve">
<circle fill="none" stroke="#A2FF00" stroke-width="2" stroke-miterlimit="10" stroke-dasharray="2,2" cx="49.285" cy="49.857" r="48.438"/>
<path fill="none" stroke="#333333" stroke-miterlimit="10" d="M73.697,49.284c-0.067-1.686-1.011-3.035-1.551-3.643
	c0.742-1.483,1.214-4.182-1.012-6.204c-3.643-3.305-12.948-1.281-13.354-1.214l0,0c-0.674,0.135-1.349,0.27-2.091,0.405
	c-0.066,0-0.066,0-0.135,0.067c0,0-0.135,0.068-0.27,0c-0.135-0.067-0.943-1.079,1.146-7.419c1.417-4.384,1.349-7.689-0.135-9.779
	c-1.551-2.159-4.115-2.36-4.855-2.36c-0.607,0-1.079,0.202-1.484,0.674c-1.08,1.281-0.81,3.979-0.674,4.721
	c-0.54,1.484-4.991,13.22-9.173,16.389l-0.067,0.067c-1.281,1.281-1.955,2.765-2.36,3.844c-0.675-0.607-1.552-0.945-2.495-0.945
	h-6.611c-2.022,0-3.708,1.687-3.708,3.71v17.603c0,2.023,1.686,3.709,3.708,3.709h6.611c0.943,0,1.82-0.337,2.495-0.944l2.765,0.404
	c0.067,0,7.284,0.944,14.366,0.811c1.281,0.134,2.495,0.134,3.642,0.134c1.889,0,3.508-0.134,4.856-0.404
	c3.103-0.675,5.193-1.956,6.204-3.777c0.944-1.618,0.742-3.305,0.54-4.046c3.508-2.9,2.495-6.407,1.956-7.621
	C73.158,52.117,73.766,50.7,73.697,49.284z M37.5,45v23"/>
</svg>
