<?xml version="1.0" encoding="utf-8"?>
<!-- Generator: Adobe Illustrator 15.0.2, SVG Export Plug-In . SVG Version: 6.00 Build 0)  -->
<!DOCTYPE svg PUBLIC "-//W3C//DTD SVG 1.1//EN" "http://www.w3.org/Graphics/SVG/1.1/DTD/svg11.dtd">
<svg version="1.1" id="Layer_1" xmlns="http://www.w3.org/2000/svg" xmlns:xlink="http://www.w3.org/1999/xlink" x="0px" y="0px"
	 width="524.651px" height="160.283px" viewBox="0 0 524.651 160.283" enable-background="new 0 0 524.651 160.283"
	 xml:space="preserve">
<g>
	<path fill="#A2FF00" d="M210.756,128.24h-10.667c-3.774,0-7.156-2.336-8.489-5.861l-33.845-89.563h16.94l27.593,71.264
		l25.375-65.547c1.334-3.447,4.648-5.717,8.344-5.717h10.81L210.756,128.24z"/>
	<path fill="none" stroke="#A2FF00" stroke-width="0.5" stroke-miterlimit="10" d="M210.756,128.24h-10.667
		c-3.774,0-7.156-2.336-8.489-5.861l-33.845-89.563h16.94l27.593,71.264l25.375-65.547c1.334-3.447,4.648-5.717,8.344-5.717h10.81
		L210.756,128.24z"/>
	<path fill="#A2FF00" d="M333.183,115.068c-9.068,9.418-20.277,14.129-33.623,14.129c-13.348,0-24.555-4.711-33.62-14.129
		c-9.068-9.418-13.602-21.162-13.602-35.219c0-14.064,4.533-25.804,13.602-35.229c9.065-9.418,20.272-14.125,33.62-14.125
		c13.346,0,24.555,4.707,33.623,14.125c9.066,9.424,13.604,21.165,13.604,35.229C346.784,93.906,342.249,105.65,333.183,115.068
		 M322.081,55.342c-6.115-6.737-13.623-10.104-22.521-10.104s-16.404,3.367-22.521,10.104c-6.117,6.736-9.173,14.904-9.173,24.506
		s3.056,17.766,9.173,24.5c6.117,6.739,13.625,10.108,22.521,10.108s16.404-3.37,22.521-10.108c6.117-6.734,9.178-14.898,9.178-24.5
		S328.198,62.079,322.081,55.342"/>
	<path fill="none" stroke="#A2FF00" stroke-width="0.5" stroke-miterlimit="10" d="M333.183,115.068
		c-9.068,9.418-20.277,14.129-33.623,14.129c-13.348,0-24.555-4.711-33.62-14.129c-9.068-9.418-13.602-21.162-13.602-35.219
		c0-14.064,4.533-25.804,13.602-35.229c9.065-9.418,20.272-14.125,33.62-14.125c13.346,0,24.555,4.707,33.623,14.125
		c9.066,9.424,13.604,21.165,13.604,35.229C346.784,93.906,342.249,105.65,333.183,115.068z M322.081,55.342
		c-6.115-6.737-13.623-10.104-22.521-10.104s-16.404,3.367-22.521,10.104c-6.117,6.736-9.173,14.904-9.173,24.506
		s3.056,17.766,9.173,24.5c6.117,6.739,13.625,10.108,22.521,10.108s16.404-3.37,22.521-10.108c6.117-6.734,9.178-14.898,9.178-24.5
		S328.198,62.079,322.081,55.342z"/>
	<path fill="#A2FF00" d="M365.909,119.041V32.815h15.141v80.136h40.936v15.288h-46.879
		C370.024,128.24,365.909,124.123,365.909,119.041"/>
	<path fill="none" stroke="#A2FF00" stroke-width="0.5" stroke-miterlimit="10" d="M365.909,119.041V32.815h15.141v80.136h40.936
		v15.288h-46.879C370.024,128.24,365.909,124.123,365.909,119.041z"/>
	<path fill="#A2FF00" d="M511.05,115.068c-9.072,9.418-20.279,14.129-33.625,14.129c-13.344,0-24.557-4.711-33.625-14.129
		c-9.066-9.418-13.6-21.162-13.6-35.219c0-14.064,4.531-25.804,13.6-35.229c9.068-9.418,20.281-14.125,33.625-14.125
		c13.346,0,24.553,4.707,33.625,14.125c9.066,9.424,13.602,21.165,13.602,35.229C524.649,93.906,520.116,105.65,511.05,115.068
		 M499.946,55.342c-6.119-6.737-13.627-10.104-22.521-10.104c-8.9,0-16.408,3.367-22.523,10.104
		c-6.115,6.736-9.174,14.904-9.174,24.506s3.059,17.766,9.174,24.5c6.115,6.739,13.623,10.108,22.523,10.108
		c8.895,0,16.402-3.37,22.521-10.108c6.117-6.734,9.176-14.898,9.176-24.5S506.063,62.079,499.946,55.342"/>
	<path fill="none" stroke="#A2FF00" stroke-width="0.5" stroke-miterlimit="10" d="M511.05,115.068
		c-9.072,9.418-20.279,14.129-33.625,14.129c-13.344,0-24.557-4.711-33.625-14.129c-9.066-9.418-13.6-21.162-13.6-35.219
		c0-14.064,4.531-25.804,13.6-35.229c9.068-9.418,20.281-14.125,33.625-14.125c13.346,0,24.553,4.707,33.625,14.125
		c9.066,9.424,13.602,21.165,13.602,35.229C524.649,93.906,520.116,105.65,511.05,115.068z M499.946,55.342
		c-6.119-6.737-13.627-10.104-22.521-10.104c-8.9,0-16.408,3.367-22.523,10.104c-6.115,6.736-9.174,14.904-9.174,24.506
		s3.059,17.766,9.174,24.5c6.115,6.739,13.623,10.108,22.523,10.108c8.895,0,16.402-3.37,22.521-10.108
		c6.117-6.734,9.176-14.898,9.176-24.5S506.063,62.079,499.946,55.342z"/>
</g>
<g>
	<path fill="#9CC100" d="M62.714,63.782L22.336,79.182c0,0-22.054-51.017-22.054-51.044c-0.713-1.854-0.03-3.537,1.54-3.85H1.85
		L62.714,63.782z"/>
	<path fill="#A2FF00" d="M135.006,4.439l-32.994,75.227L62.714,63.782l70.609-63.621C134.776,0.675,135.749,2.271,135.006,4.439z"/>
	<path fill="#91A80B" d="M62.714,63.782v96.5c-1.767,0-3.564-1.057-4.79-3.165L22.335,79.181L62.714,63.782z"/>
	<path fill="#91A80B" d="M133.324,0.163L62.715,63.783V45.305l68.071-44.914C131.643-0.065,132.554-0.095,133.324,0.163z"/>
	<path fill="#A3DB09" d="M102.012,79.667c0,0-34.392,77.081-34.563,77.396c-1.141,2.166-2.937,3.25-4.735,3.222v-96.5
		L102.012,79.667z"/>
	<path fill="#A2FF00" d="M62.714,45.305v18.479L1.85,24.288c0.742-0.142,1.682,0,2.767,0.571
		C4.9,25.027,62.714,45.305,62.714,45.305z"/>
</g>
</svg>
