<?xml version="1.0" encoding="utf-8"?>
<!-- Generator: Adobe Illustrator 15.0.2, SVG Export Plug-In . SVG Version: 6.00 Build 0)  -->
<!DOCTYPE svg PUBLIC "-//W3C//DTD SVG 1.1//EN" "http://www.w3.org/Graphics/SVG/1.1/DTD/svg11.dtd">
<svg version="1.1" id="Isolation_Mode" xmlns="http://www.w3.org/2000/svg" xmlns:xlink="http://www.w3.org/1999/xlink" x="0px"
	 y="0px" width="74.751px" height="74.766px" viewBox="11.451 12.617 74.751 74.766"
	 enable-background="new 11.451 12.617 74.751 74.766" xml:space="preserve">
<path fill="#333333" d="M64.996,12.615c-0.215,0-0.391,1.377-0.391,3.072c0,1.698,0.176,3.074,0.391,3.074l10.725-0.001
	c-4.464,4.46-10.725,10.72-13.738,13.732c-5.517-4.532-12.37-6.997-19.602-6.997c-8.266,0-16.038,3.22-21.882,9.063
	c-12.064,12.065-12.064,31.696,0,43.762c5.844,5.846,13.616,9.062,21.882,9.062s16.036-3.219,21.881-9.062
	c11.331-11.332,12.018-29.337,2.063-41.48c3.013-3.014,9.274-9.277,13.737-13.741l0.002,10.744c0.082,0.207,1.424,0.371,3.064,0.371
	c1.646,0,2.982-0.164,3.07-0.371l0.003-21.226L64.996,12.615z M60.09,74.148c-4.729,4.73-11.02,7.338-17.709,7.338
	c-6.691,0-12.98-2.605-17.712-7.338c-9.765-9.766-9.765-25.653,0-35.42c4.731-4.73,11.021-7.336,17.712-7.336
	c6.689,0,12.979,2.605,17.709,7.336C69.855,48.495,69.855,64.386,60.09,74.148z"/>
</svg>
