<?xml version="1.0" encoding="utf-8"?>
<!-- Generator: Adobe Illustrator 15.0.2, SVG Export Plug-In . SVG Version: 6.00 Build 0)  -->
<!DOCTYPE svg PUBLIC "-//W3C//DTD SVG 1.1//EN" "http://www.w3.org/Graphics/SVG/1.1/DTD/svg11.dtd">
<svg version="1.1" id="Layer_1" xmlns="http://www.w3.org/2000/svg" xmlns:xlink="http://www.w3.org/1999/xlink" x="0px" y="0px"
	 width="100px" height="100px" viewBox="0 0 100 100" enable-background="new 0 0 100 100" xml:space="preserve">
<g>
	<path fill="#A2FF00" d="M50.003,1.58c-0.02,0-0.037,0-0.055,0c-0.553,0-1,0.448-1,1c0.002,0.552,0.449,1,1,1c0,0,0,0,0.002,0h0.053
		c0.031,0,0.064-0.001,0.096-0.004c0.032,0.003,0.064,0.004,0.096,0.005h0.053c0.002,0,0.004,0,0.006,0c0.55,0,0.997-0.444,1-0.995
		c0.003-0.552-0.442-1.002-0.995-1.005c-0.011,0-0.022,0-0.034,0c-0.008,0-0.017,0-0.025,0l0,0c-0.031,0-0.063,0.001-0.096,0.004
		C50.071,1.581,50.036,1.58,50.003,1.58L50.003,1.58L50.003,1.58z M46.036,1.744c-0.027,0-0.055,0.001-0.082,0.003
		c-0.021,0.001-0.041,0.003-0.062,0.005c-0.548,0.048-0.954,0.53-0.909,1.079c0.045,0.522,0.481,0.917,0.996,0.917
		c0.028,0,0.057-0.001,0.084-0.003l0.053-0.004c0.55-0.046,0.959-0.529,0.914-1.08C46.987,2.139,46.551,1.744,46.036,1.744
		L46.036,1.744z M42.097,2.236c-0.055,0-0.111,0.004-0.167,0.014c-0.019,0.003-0.036,0.006-0.054,0.009
		c-0.545,0.092-0.912,0.608-0.82,1.152c0.083,0.488,0.506,0.834,0.985,0.834c0.055,0,0.11-0.004,0.167-0.014l0.052-0.009
		c0.545-0.091,0.912-0.607,0.821-1.152C42.999,2.581,42.575,2.236,42.097,2.236L42.097,2.236z M38.213,3.057
		c-0.082,0-0.166,0.01-0.249,0.031c-0.02,0.005-0.038,0.01-0.059,0.015c-0.533,0.139-0.854,0.683-0.715,1.216
		c0.115,0.452,0.522,0.751,0.969,0.751c0.082,0,0.166-0.01,0.248-0.031l0.052-0.013c0.534-0.137,0.856-0.682,0.721-1.217
		C39.063,3.357,38.657,3.057,38.213,3.057L38.213,3.057z M34.411,4.202c-0.109,0-0.221,0.018-0.33,0.056
		c-0.014,0.005-0.029,0.011-0.045,0.016c-0.004,0.001-0.004,0.001-0.008,0.002c-0.521,0.182-0.795,0.752-0.613,1.273
		c0.144,0.413,0.531,0.671,0.945,0.671c0.108,0,0.219-0.018,0.328-0.056l0.051-0.017c0.521-0.182,0.797-0.752,0.615-1.273
		C35.211,4.46,34.823,4.202,34.411,4.202L34.411,4.202z M30.719,5.662c-0.136,0-0.274,0.028-0.407,0.087
		c-0.015,0.007-0.029,0.014-0.045,0.02c-0.001,0.001-0.005,0.002-0.007,0.003c-0.503,0.226-0.729,0.816-0.504,1.32
		c0.166,0.372,0.532,0.593,0.914,0.593c0.136,0,0.274-0.028,0.407-0.087l0.048-0.021c0.504-0.225,0.731-0.816,0.506-1.321
		C31.467,5.883,31.102,5.662,30.719,5.662L30.719,5.662z M27.163,7.429c-0.161,0-0.325,0.039-0.479,0.123
		c-0.019,0.01-0.035,0.02-0.055,0.03c-0.48,0.268-0.655,0.874-0.389,1.356c0.183,0.331,0.523,0.518,0.877,0.518
		c0.164,0,0.328-0.04,0.481-0.125l0.046-0.025c0.483-0.267,0.66-0.875,0.395-1.359C27.858,7.616,27.516,7.429,27.163,7.429
		L27.163,7.429z M23.769,9.487c-0.189,0-0.383,0.054-0.553,0.167c-0.003,0.002-0.006,0.004-0.01,0.006
		c-0.01,0.007-0.018,0.013-0.028,0.02c-0.002,0.001-0.005,0.003-0.008,0.005c-0.459,0.306-0.584,0.927-0.277,1.386
		c0.192,0.289,0.511,0.446,0.833,0.446c0.19,0,0.383-0.055,0.553-0.168l0.045-0.029c0.459-0.306,0.584-0.927,0.278-1.387
		C24.409,9.644,24.092,9.487,23.769,9.487L23.769,9.487z M20.557,11.822c-0.218,0-0.437,0.071-0.621,0.217
		c-0.009,0.007-0.017,0.014-0.026,0.021c-0.006,0.005-0.014,0.011-0.021,0.017c-0.429,0.344-0.5,0.97-0.157,1.401
		c0.198,0.249,0.49,0.378,0.784,0.378c0.218,0,0.438-0.071,0.622-0.217l0.041-0.033c0.434-0.343,0.505-0.973,0.162-1.405
		C21.144,11.952,20.852,11.822,20.557,11.822L20.557,11.822z M17.551,14.416c-0.245,0-0.491,0.09-0.685,0.271
		c-0.002,0.003-0.006,0.005-0.008,0.008c-0.012,0.01-0.023,0.021-0.035,0.032c-0.399,0.378-0.418,1.009-0.041,1.411
		c0.197,0.209,0.463,0.315,0.729,0.315c0.246,0,0.492-0.09,0.686-0.271l0.039-0.036c0.401-0.378,0.422-1.011,0.043-1.414
		C18.084,14.522,17.817,14.416,17.551,14.416L17.551,14.416z M14.772,17.251c-0.272,0-0.543,0.11-0.74,0.328
		c-0.015,0.016-0.028,0.031-0.043,0.046c-0.367,0.41-0.332,1.041,0.078,1.409c0.19,0.172,0.43,0.257,0.668,0.257
		c0.273,0,0.547-0.112,0.744-0.331l0.035-0.04c0.37-0.41,0.337-1.042-0.072-1.413C15.25,17.336,15.01,17.251,14.772,17.251
		L14.772,17.251z M12.237,20.307c-0.302,0-0.601,0.136-0.797,0.395c0,0.002-0.002,0.003-0.004,0.005
		c-0.009,0.012-0.018,0.023-0.027,0.036c0,0.001,0,0.002-0.002,0.003c-0.334,0.439-0.248,1.066,0.191,1.401
		c0.182,0.137,0.393,0.204,0.604,0.204c0.303,0,0.602-0.136,0.798-0.395l0.032-0.042c0.334-0.439,0.248-1.067-0.19-1.402
		C12.661,20.373,12.448,20.307,12.237,20.307L12.237,20.307z M9.966,23.563c-0.331,0-0.654,0.164-0.844,0.463
		c-0.002,0.004-0.004,0.007-0.008,0.011c-0.008,0.013-0.016,0.025-0.023,0.038c-0.294,0.466-0.156,1.082,0.309,1.377
		c0.166,0.105,0.353,0.156,0.536,0.156c0.331,0,0.654-0.164,0.845-0.465l0.028-0.043c0.296-0.466,0.159-1.084-0.307-1.381
		C10.336,23.614,10.149,23.563,9.966,23.563L9.966,23.563z M7.974,26.998c-0.357,0-0.705,0.194-0.884,0.533
		C7.085,27.54,7.079,27.55,7.075,27.56c-0.004,0.008-0.008,0.016-0.012,0.022c-0.257,0.489-0.068,1.093,0.42,1.351
		c0.148,0.078,0.308,0.113,0.463,0.113c0.36,0,0.709-0.195,0.888-0.535l0.024-0.048c0.256-0.489,0.068-1.094-0.42-1.351
		C8.29,27.035,8.131,26.998,7.974,26.998L7.974,26.998z M6.278,30.587c-0.391,0-0.761,0.229-0.922,0.611
		c-0.005,0.012-0.01,0.023-0.015,0.036c-0.001,0.004-0.004,0.011-0.006,0.016c-0.214,0.509,0.024,1.095,0.534,1.31
		c0.125,0.053,0.258,0.078,0.388,0.078c0.39,0,0.761-0.23,0.922-0.612l0.021-0.05c0.215-0.508-0.023-1.096-0.532-1.311
		C6.538,30.613,6.407,30.587,6.278,30.587L6.278,30.587z M4.889,34.308c-0.42,0-0.812,0.267-0.948,0.688
		c-0.004,0.012-0.007,0.02-0.011,0.03c-0.003,0.008-0.005,0.017-0.008,0.024c-0.17,0.525,0.116,1.09,0.642,1.26
		c0.104,0.033,0.207,0.05,0.309,0.05c0.422,0,0.814-0.269,0.951-0.691l0.018-0.05c0.17-0.525-0.117-1.089-0.643-1.262
		C5.096,34.322,4.991,34.308,4.889,34.308L4.889,34.308z M3.819,38.129c-0.453,0-0.865,0.312-0.973,0.771
		c-0.004,0.019-0.009,0.038-0.014,0.057c-0.124,0.537,0.209,1.073,0.746,1.198c0.076,0.018,0.154,0.025,0.229,0.025
		c0.454,0,0.865-0.311,0.974-0.771l0.012-0.051c0.126-0.538-0.208-1.076-0.746-1.202C3.972,38.138,3.895,38.129,3.819,38.129
		L3.819,38.129z M3.073,42.029c-0.486,0-0.912,0.356-0.986,0.853c0,0.004-0.001,0.01-0.002,0.016
		c-0.001,0.009-0.002,0.018-0.004,0.027c0,0.004-0.002,0.01-0.002,0.014c-0.08,0.546,0.298,1.054,0.844,1.134
		c0.049,0.007,0.098,0.011,0.146,0.011c0.487,0,0.916-0.357,0.988-0.855l0.008-0.051c0.08-0.547-0.297-1.056-0.844-1.136
		C3.172,42.033,3.122,42.029,3.073,42.029L3.073,42.029z M2.659,45.978c-0.523,0-0.963,0.406-0.998,0.937c0,0.003,0,0.006,0,0.011
		c0,0.018-0.002,0.031-0.002,0.049c-0.032,0.549,0.386,1.021,0.936,1.057c0.021,0.001,0.042,0.002,0.062,0.002
		c0.524,0,0.965-0.408,0.998-0.938l0.004-0.053c0.035-0.551-0.385-1.025-0.937-1.062C2.702,45.978,2.681,45.978,2.659,45.978
		L2.659,45.978z M2.573,49.949c-0.006,0-0.013,0-0.02,0c-0.551,0.011-0.988,0.465-0.98,1.017c0,0.021,0,0.041,0.002,0.062
		c0.013,0.543,0.457,0.975,0.998,0.975c0.008,0,0.015,0,0.021,0c0.553-0.012,0.991-0.468,0.98-1.021l-0.002-0.053
		C3.563,50.384,3.116,49.949,2.573,49.949L2.573,49.949z M2.815,53.913c-0.035,0-0.068,0.001-0.104,0.005
		c-0.549,0.058-0.949,0.548-0.893,1.097c0.002,0.017,0.002,0.029,0.004,0.045c0,0.004,0,0.008,0.002,0.011
		c0.053,0.515,0.486,0.897,0.992,0.897c0.035,0,0.069-0.002,0.104-0.007c0.549-0.057,0.948-0.548,0.892-1.098L3.809,54.81
		C3.756,54.296,3.321,53.913,2.815,53.913L2.815,53.913z M3.385,57.843c-0.062,0-0.124,0.006-0.187,0.018
		c-0.541,0.101-0.897,0.621-0.797,1.162c0.002,0.016,0.006,0.033,0.008,0.05c0,0.003,0.002,0.006,0.002,0.009
		c0.091,0.479,0.51,0.814,0.98,0.814c0.062,0,0.125-0.006,0.188-0.019c0.543-0.104,0.9-0.626,0.797-1.169l-0.01-0.052
		C4.276,58.177,3.856,57.843,3.385,57.843L3.385,57.843z M4.28,61.708c-0.088,0-0.178,0.014-0.268,0.037
		c-0.531,0.146-0.842,0.695-0.697,1.227c0.006,0.02,0.01,0.039,0.016,0.06c0.125,0.44,0.525,0.729,0.963,0.729
		c0.089,0,0.179-0.012,0.27-0.037c0.531-0.146,0.844-0.698,0.695-1.23L5.245,62.44C5.122,61.999,4.72,61.708,4.28,61.708
		L4.28,61.708z M5.501,65.486c-0.115,0-0.232,0.021-0.348,0.062c-0.517,0.191-0.781,0.766-0.59,1.281
		c0.004,0.01,0.006,0.02,0.01,0.027c0.004,0.01,0.006,0.019,0.011,0.027c0.149,0.402,0.53,0.651,0.937,0.651
		c0.116,0,0.233-0.021,0.348-0.062c0.519-0.192,0.783-0.77,0.59-1.287L6.44,66.138C6.288,65.735,5.907,65.486,5.501,65.486
		L5.501,65.486z M7.034,69.147c-0.143,0-0.287,0.029-0.424,0.095c-0.5,0.233-0.716,0.83-0.48,1.33c0,0.001,0.001,0.003,0.002,0.004
		c0.004,0.008,0.006,0.015,0.01,0.021c0.002,0.004,0.004,0.01,0.006,0.014s0.004,0.011,0.006,0.015
		c0.172,0.36,0.529,0.571,0.904,0.571c0.143,0,0.287-0.03,0.426-0.096c0.5-0.234,0.713-0.83,0.479-1.33L7.94,69.722
		C7.77,69.36,7.409,69.147,7.034,69.147L7.034,69.147z M8.87,72.667c-0.17,0-0.342,0.044-0.5,0.135
		c-0.479,0.275-0.643,0.887-0.366,1.365c0.005,0.01,0.01,0.018,0.015,0.025c0.006,0.01,0.01,0.017,0.016,0.025
		c0.186,0.318,0.52,0.496,0.863,0.496c0.17,0,0.342-0.044,0.5-0.135c0.478-0.275,0.641-0.889,0.365-1.366l-0.025-0.045
		C9.552,72.847,9.216,72.667,8.87,72.667L8.87,72.667z M10.993,76.021c-0.196,0-0.396,0.059-0.568,0.18
		c-0.453,0.314-0.566,0.938-0.252,1.391c0.004,0.006,0.008,0.012,0.012,0.018c0.008,0.01,0.014,0.02,0.021,0.029
		c0.193,0.278,0.505,0.43,0.82,0.43c0.197,0,0.396-0.059,0.57-0.18c0.454-0.315,0.566-0.938,0.251-1.393l-0.03-0.044
		C11.622,76.172,11.311,76.021,10.993,76.021L10.993,76.021z M13.392,79.187c-0.224,0-0.449,0.074-0.636,0.229
		c-0.427,0.352-0.486,0.98-0.136,1.407v0.001c0.009,0.009,0.017,0.02,0.024,0.027c0.005,0.006,0.009,0.011,0.013,0.016
		c0.197,0.238,0.481,0.361,0.77,0.361c0.225,0,0.45-0.075,0.637-0.229c0.426-0.353,0.485-0.981,0.135-1.407l-0.035-0.041
		C13.966,79.31,13.68,79.187,13.392,79.187L13.392,79.187z M16.045,82.142c-0.252,0-0.504,0.095-0.699,0.285
		c-0.396,0.385-0.403,1.019-0.017,1.412c0.006,0.008,0.013,0.014,0.019,0.021l0,0c0.007,0.007,0.013,0.014,0.019,0.021
		c0.197,0.2,0.457,0.301,0.715,0.301c0.253,0,0.505-0.095,0.699-0.285c0.396-0.385,0.402-1.02,0.017-1.414l-0.037-0.037
		C16.563,82.243,16.304,82.142,16.045,82.142L16.045,82.142z M18.934,84.866c-0.28,0-0.559,0.117-0.756,0.345
		c-0.362,0.417-0.317,1.048,0.099,1.409c0.016,0.014,0.03,0.025,0.045,0.039c0.188,0.163,0.42,0.242,0.651,0.242
		c0.28,0,0.56-0.116,0.757-0.346c0.36-0.418,0.315-1.049-0.103-1.41l-0.04-0.034C19.399,84.947,19.166,84.866,18.934,84.866
		L18.934,84.866z M22.038,87.341c-0.309,0-0.612,0.144-0.809,0.41c-0.326,0.446-0.229,1.071,0.217,1.396
		c0.016,0.012,0.03,0.021,0.045,0.033c0.178,0.129,0.384,0.191,0.588,0.191c0.309,0,0.613-0.143,0.809-0.411
		c0.325-0.444,0.229-1.071-0.219-1.397l-0.042-0.03C22.45,87.403,22.243,87.341,22.038,87.341L22.038,87.341z M25.34,89.548
		c-0.337,0-0.667,0.172-0.854,0.48c-0.289,0.471-0.14,1.085,0.332,1.372c0,0.001,0.002,0.002,0.004,0.003
		c0.013,0.008,0.024,0.016,0.037,0.023c0.002,0,0.006,0.004,0.01,0.006c0.162,0.098,0.34,0.144,0.516,0.144
		c0.337,0,0.667-0.171,0.855-0.479c0.287-0.473,0.137-1.088-0.334-1.375l-0.045-0.026C25.696,89.597,25.517,89.548,25.34,89.548
		L25.34,89.548z M28.813,91.472c-0.367,0-0.722,0.203-0.896,0.554c-0.247,0.493-0.047,1.093,0.445,1.341
		c0.006,0.003,0.012,0.005,0.017,0.008c0.012,0.006,0.022,0.012,0.034,0.018c0.145,0.071,0.297,0.105,0.447,0.105
		c0.366,0,0.719-0.203,0.895-0.554c0.247-0.494,0.046-1.095-0.448-1.343l-0.047-0.022C29.114,91.507,28.963,91.472,28.813,91.472
		L28.813,91.472z M32.434,93.097c-0.397,0-0.772,0.238-0.93,0.631c-0.205,0.513,0.045,1.094,0.56,1.299
		c0.004,0.001,0.008,0.003,0.012,0.005c0.014,0.005,0.026,0.01,0.039,0.016c0.123,0.048,0.248,0.07,0.371,0.07
		c0.396,0,0.772-0.238,0.928-0.63c0.205-0.514-0.045-1.096-0.559-1.301l-0.05-0.019C32.682,93.119,32.557,93.097,32.434,93.097
		L32.434,93.097z M36.179,94.41c-0.429,0-0.826,0.278-0.957,0.71c-0.161,0.527,0.137,1.085,0.664,1.246
		c0.004,0.002,0.005,0.002,0.009,0.003c0.015,0.005,0.03,0.01,0.046,0.015c0.096,0.029,0.194,0.043,0.291,0.043
		c0.428,0,0.824-0.277,0.955-0.709c0.16-0.529-0.139-1.088-0.667-1.248l-0.051-0.016C36.372,94.425,36.276,94.41,36.179,94.41
		L36.179,94.41z M40.021,95.404c-0.461,0-0.876,0.321-0.977,0.791c-0.116,0.54,0.229,1.071,0.77,1.187
		c0.01,0.004,0.021,0.006,0.032,0.008c0.009,0.002,0.015,0.004,0.021,0.004c0.07,0.017,0.141,0.022,0.209,0.022
		c0.461,0,0.875-0.321,0.977-0.792c0.115-0.54-0.229-1.07-0.77-1.188l-0.053-0.01C40.161,95.411,40.091,95.404,40.021,95.404
		L40.021,95.404z M43.935,96.071c-0.496,0-0.927,0.369-0.99,0.874c-0.07,0.548,0.316,1.049,0.864,1.118c0.005,0,0.007,0,0.011,0.002
		c0.017,0.002,0.03,0.004,0.047,0.006c0.041,0.005,0.084,0.008,0.125,0.008c0.496,0,0.926-0.369,0.99-0.874
		c0.068-0.549-0.32-1.049-0.867-1.118l-0.053-0.007C44.019,96.074,43.977,96.071,43.935,96.071L43.935,96.071z M47.891,96.41
		c-0.532,0-0.975,0.42-0.999,0.957c-0.023,0.55,0.401,1.017,0.951,1.042c0.021,0.001,0.041,0.001,0.062,0.002
		c0.014,0.001,0.026,0.001,0.041,0.001c0.533,0,0.975-0.42,0.998-0.957c0.022-0.552-0.406-1.019-0.957-1.042l-0.054-0.002
		C47.921,96.41,47.905,96.41,47.891,96.41L47.891,96.41z M51.918,96.418c-0.013,0-0.026,0-0.039,0.001l-0.054,0.002
		c-0.551,0.021-0.981,0.486-0.961,1.038c0.021,0.539,0.465,0.961,0.998,0.961c0.014,0,0.026,0,0.041,0
		c0.002-0.001,0.004-0.001,0.006-0.001c0.014,0,0.026-0.001,0.039-0.001c0.004,0,0.006-0.001,0.01-0.001
		c0.552-0.021,0.98-0.486,0.96-1.038C52.897,96.841,52.452,96.418,51.918,96.418L51.918,96.418z M55.876,96.097
		c-0.041,0-0.082,0.002-0.123,0.008L55.7,96.111c-0.549,0.067-0.938,0.565-0.871,1.114c0.062,0.506,0.492,0.877,0.99,0.877
		c0.041,0,0.082-0.002,0.123-0.006c0.004-0.002,0.008-0.002,0.014-0.002c0,0,0.002,0,0.004,0c0.002-0.002,0.004-0.002,0.006-0.002
		c0.005,0,0.006,0,0.011,0c0.007-0.002,0.015-0.002,0.021-0.004c0.549-0.066,0.938-0.566,0.871-1.113
		C56.806,96.468,56.374,96.097,55.876,96.097L55.876,96.097z M59.793,95.445c-0.068,0-0.138,0.007-0.206,0.021l-0.053,0.012
		c-0.541,0.111-0.887,0.643-0.773,1.184c0.098,0.473,0.514,0.795,0.977,0.795c0.068,0,0.138-0.007,0.207-0.021
		c0.004,0,0.008-0.002,0.014-0.002l0.002-0.002c0.003,0,0.006,0,0.009-0.002c0.011-0.002,0.022-0.004,0.033-0.007
		c0.539-0.114,0.883-0.644,0.771-1.183C60.672,95.769,60.256,95.445,59.793,95.445L59.793,95.445z M63.639,94.468
		c-0.095,0-0.19,0.014-0.287,0.043l-0.05,0.015c-0.529,0.157-0.83,0.716-0.673,1.245c0.13,0.434,0.526,0.714,0.958,0.714
		c0.095,0,0.189-0.015,0.285-0.042c0.009-0.004,0.016-0.006,0.022-0.008s0.017-0.004,0.022-0.006
		c0.003-0.002,0.006-0.002,0.008-0.004c0.529-0.158,0.83-0.715,0.671-1.244C64.467,94.747,64.069,94.468,63.639,94.468
		L63.639,94.468z M67.39,93.169c-0.122,0-0.246,0.021-0.365,0.069l-0.05,0.021c-0.514,0.201-0.767,0.781-0.565,1.297
		c0.156,0.394,0.533,0.633,0.932,0.633c0.12,0,0.243-0.021,0.361-0.066c0.006-0.003,0.013-0.005,0.019-0.008
		c0.013-0.005,0.024-0.01,0.037-0.016c0.515-0.201,0.767-0.781,0.563-1.295C68.166,93.409,67.788,93.169,67.39,93.169L67.39,93.169z
		 M71.018,91.558c-0.149,0-0.3,0.035-0.442,0.104l-0.047,0.022c-0.496,0.244-0.699,0.845-0.453,1.341
		c0.174,0.353,0.527,0.557,0.896,0.557c0.147,0,0.3-0.032,0.44-0.104c0.002,0,0.002,0,0.002,0c0.018-0.008,0.033-0.017,0.049-0.023
		c0.495-0.244,0.697-0.845,0.453-1.339C71.739,91.765,71.386,91.558,71.018,91.558L71.018,91.558z M74.497,89.65
		c-0.176,0-0.354,0.046-0.516,0.144l-0.043,0.027c-0.474,0.285-0.625,0.9-0.341,1.373c0.188,0.312,0.519,0.484,0.856,0.484
		c0.175,0,0.352-0.047,0.512-0.144c0.018-0.01,0.037-0.021,0.054-0.032c0.472-0.285,0.621-0.898,0.337-1.369
		C75.168,89.822,74.837,89.65,74.497,89.65L74.497,89.65z M77.808,87.457c-0.203,0-0.408,0.062-0.585,0.188l-0.043,0.031
		c-0.446,0.324-0.548,0.949-0.226,1.396c0.195,0.271,0.502,0.414,0.812,0.414c0.203,0,0.408-0.062,0.586-0.189
		c0.007-0.005,0.011-0.009,0.017-0.013c0.011-0.007,0.021-0.015,0.031-0.021c0.444-0.324,0.543-0.949,0.221-1.396
		C78.424,87.601,78.118,87.457,77.808,87.457L77.808,87.457z M80.924,84.995c-0.231,0-0.463,0.079-0.651,0.241l-0.039,0.034
		c-0.42,0.359-0.468,0.992-0.107,1.41c0.197,0.23,0.478,0.35,0.759,0.35c0.229,0,0.462-0.08,0.649-0.242
		c0.013-0.009,0.023-0.02,0.035-0.027c0.004-0.004,0.006-0.007,0.01-0.01c0.416-0.359,0.464-0.99,0.104-1.408
		C81.485,85.113,81.204,84.995,80.924,84.995L80.924,84.995z M83.823,82.282c-0.258,0-0.518,0.1-0.713,0.299l-0.037,0.037
		c-0.388,0.395-0.383,1.027,0.012,1.415c0.193,0.19,0.447,0.287,0.701,0.287c0.258,0,0.517-0.101,0.711-0.298
		c0.014-0.014,0.027-0.026,0.039-0.039c0.389-0.395,0.383-1.026-0.012-1.414C84.331,82.378,84.077,82.282,83.823,82.282
		L83.823,82.282z M86.489,79.338c-0.287,0-0.572,0.123-0.771,0.36l-0.034,0.041c-0.354,0.424-0.296,1.055,0.129,1.408
		c0.188,0.156,0.413,0.231,0.639,0.231c0.287,0,0.57-0.122,0.769-0.358c0.002-0.002,0.002-0.002,0.004-0.006
		c0.011-0.013,0.021-0.024,0.032-0.037c0.354-0.426,0.296-1.056-0.129-1.408C86.942,79.414,86.715,79.338,86.489,79.338
		L86.489,79.338z M88.899,76.183c-0.314,0-0.625,0.147-0.82,0.427l-0.029,0.043c-0.316,0.452-0.207,1.075,0.245,1.394
		c0.174,0.122,0.374,0.182,0.571,0.182c0.314,0,0.625-0.147,0.819-0.426c0.007-0.009,0.011-0.016,0.017-0.023
		s0.012-0.016,0.017-0.021c0.315-0.451,0.207-1.076-0.246-1.393C89.297,76.241,89.098,76.183,88.899,76.183L88.899,76.183z
		 M91.038,72.837c-0.346,0-0.682,0.18-0.866,0.497l-0.026,0.046c-0.277,0.479-0.115,1.09,0.36,1.368
		c0.157,0.093,0.332,0.136,0.503,0.136c0.344,0,0.68-0.178,0.863-0.496c0.006-0.009,0.011-0.017,0.016-0.024
		c0.005-0.009,0.012-0.019,0.016-0.026c0.274-0.477,0.112-1.086-0.362-1.363C91.382,72.882,91.208,72.837,91.038,72.837
		L91.038,72.837z M92.888,69.325c-0.374,0-0.732,0.211-0.904,0.57l-0.021,0.049c-0.237,0.498-0.025,1.096,0.474,1.333
		c0.14,0.065,0.285,0.097,0.429,0.097c0.375,0,0.732-0.211,0.903-0.57c0.007-0.015,0.015-0.027,0.021-0.041
		c0.002-0.004,0.004-0.008,0.005-0.011c0.235-0.499,0.022-1.094-0.476-1.33C93.178,69.356,93.032,69.325,92.888,69.325
		L92.888,69.325z M94.437,65.67c-0.404,0-0.785,0.248-0.937,0.649l-0.019,0.049c-0.195,0.518,0.066,1.094,0.584,1.288
		c0.115,0.044,0.233,0.063,0.352,0.063c0.404,0,0.785-0.246,0.936-0.647c0.002-0.003,0.004-0.006,0.004-0.011
		c0.002,0,0.002-0.004,0.002-0.004c0.002-0.002,0.002-0.004,0.002-0.004c0.004-0.013,0.01-0.024,0.014-0.037
		c0.191-0.516-0.069-1.09-0.586-1.283C94.672,65.69,94.553,65.67,94.437,65.67L94.437,65.67z M95.672,61.897
		c-0.438,0-0.839,0.287-0.963,0.729l-0.015,0.051c-0.149,0.531,0.158,1.084,0.69,1.234c0.091,0.025,0.183,0.038,0.272,0.038
		c0.436,0,0.836-0.288,0.961-0.729c0,0,0-0.002,0-0.004c0.007-0.02,0.011-0.033,0.017-0.054c0.146-0.53-0.163-1.08-0.692-1.229
		C95.853,61.91,95.761,61.897,95.672,61.897L95.672,61.897z M96.584,58.034c-0.47,0-0.89,0.333-0.981,0.812l-0.01,0.051
		c-0.104,0.543,0.25,1.068,0.792,1.173c0.063,0.013,0.129,0.019,0.19,0.019c0.469,0,0.887-0.33,0.979-0.806
		c0.003-0.019,0.007-0.034,0.011-0.052c0-0.002,0-0.006,0-0.008c0.105-0.541-0.25-1.065-0.791-1.17
		C96.711,58.04,96.647,58.034,96.584,58.034L96.584,58.034z M97.17,54.108c-0.505,0-0.938,0.381-0.993,0.894l-0.006,0.054
		c-0.061,0.549,0.338,1.041,0.888,1.102c0.036,0.004,0.072,0.006,0.108,0.006c0.504,0,0.938-0.38,0.992-0.893
		c0-0.01,0.002-0.019,0.002-0.026c0.002-0.008,0.002-0.019,0.004-0.026c0-0.002,0-0.002,0-0.004c0.059-0.549-0.34-1.039-0.889-1.099
		C97.241,54.11,97.204,54.108,97.17,54.108L97.17,54.108z M97.428,50.146c-0.542,0-0.987,0.433-1,0.977l-0.001,0.053
		c-0.014,0.553,0.423,1.01,0.977,1.023c0.008,0,0.017,0.001,0.023,0.001c0.541,0,0.986-0.433,0.999-0.976c0-0.008,0-0.016,0-0.021
		c0.001-0.012,0.001-0.025,0.001-0.038c0.012-0.55-0.425-1.006-0.977-1.019C97.444,50.146,97.436,50.146,97.428,50.146
		L97.428,50.146z M97.358,46.173c-0.021,0-0.039,0.002-0.061,0.002c-0.551,0.033-0.973,0.506-0.939,1.057l0.004,0.054
		c0.03,0.532,0.473,0.942,0.998,0.942c0.02,0,0.039,0,0.059-0.002c0.552-0.032,0.973-0.506,0.939-1.057c0-0.004,0-0.009,0-0.013
		c0-0.003-0.002-0.011-0.002-0.015c0-0.008,0-0.019-0.002-0.026C98.323,46.583,97.884,46.173,97.358,46.173L97.358,46.173z
		 M96.959,42.224c-0.048,0-0.095,0.002-0.144,0.01c-0.547,0.078-0.927,0.585-0.849,1.132l0.008,0.052
		c0.071,0.499,0.499,0.859,0.989,0.859c0.047,0,0.094-0.004,0.143-0.01c0.547-0.078,0.926-0.584,0.848-1.131
		c0-0.004,0-0.008,0-0.012c-0.002-0.005-0.002-0.006-0.002-0.011c0,0,0-0.001,0-0.002c-0.002-0.001-0.002-0.003-0.002-0.005
		c0-0.008-0.002-0.018-0.004-0.025C97.876,42.582,97.448,42.224,96.959,42.224L96.959,42.224z M96.231,38.32
		c-0.074,0-0.15,0.008-0.226,0.024c-0.538,0.125-0.874,0.662-0.751,1.199l0.012,0.051c0.105,0.463,0.52,0.777,0.975,0.777
		c0.074,0,0.149-0.008,0.226-0.025c0.538-0.123,0.874-0.66,0.751-1.197c-0.005-0.018-0.009-0.036-0.014-0.055
		C97.098,38.634,96.687,38.32,96.231,38.32L96.231,38.32z M95.177,34.493c-0.102,0-0.204,0.016-0.307,0.048
		c-0.525,0.169-0.814,0.731-0.646,1.259l0.018,0.049c0.136,0.424,0.528,0.695,0.951,0.695c0.103,0,0.205-0.016,0.307-0.048
		c0.525-0.168,0.814-0.729,0.646-1.256c-0.004-0.011-0.007-0.021-0.01-0.03c-0.003-0.008-0.005-0.016-0.008-0.023
		C95.991,34.763,95.6,34.493,95.177,34.493L95.177,34.493z M93.804,30.769c-0.129,0-0.259,0.024-0.385,0.078
		c-0.51,0.211-0.751,0.797-0.538,1.308l0.021,0.048c0.159,0.384,0.531,0.616,0.924,0.616c0.129,0,0.259-0.024,0.385-0.077
		c0.509-0.212,0.75-0.794,0.54-1.305c-0.005-0.008-0.007-0.017-0.011-0.024c-0.004-0.01-0.008-0.019-0.013-0.028
		C94.567,30.999,94.196,30.769,93.804,30.769L93.804,30.769z M92.122,27.172c-0.155,0-0.312,0.037-0.461,0.113
		c-0.489,0.255-0.682,0.858-0.426,1.349l0.023,0.047c0.178,0.342,0.527,0.539,0.889,0.539c0.155,0,0.312-0.035,0.459-0.111
		c0.49-0.254,0.682-0.855,0.43-1.346c-0.002-0.004-0.006-0.012-0.01-0.017c-0.006-0.012-0.012-0.022-0.018-0.034
		C92.831,27.369,92.483,27.172,92.122,27.172L92.122,27.172z M90.145,23.729c-0.182,0-0.366,0.05-0.532,0.155
		c-0.467,0.294-0.606,0.913-0.312,1.378l0.028,0.045c0.189,0.303,0.515,0.468,0.848,0.468c0.182,0,0.366-0.05,0.532-0.154
		c0.467-0.294,0.606-0.912,0.312-1.379c-0.009-0.014-0.018-0.028-0.025-0.042c-0.002-0.001-0.004-0.003-0.004-0.004
		C90.801,23.894,90.477,23.729,90.145,23.729L90.145,23.729z M87.887,20.463c-0.209,0-0.421,0.066-0.601,0.202
		c-0.441,0.333-0.529,0.96-0.196,1.401l0.03,0.042c0.197,0.261,0.498,0.398,0.801,0.398c0.21,0,0.421-0.065,0.602-0.201
		c0.44-0.332,0.528-0.957,0.198-1.398c-0.011-0.015-0.024-0.032-0.035-0.046C88.489,20.6,88.19,20.463,87.887,20.463L87.887,20.463z
		 M85.364,17.397c-0.236,0-0.476,0.084-0.666,0.254c-0.412,0.368-0.446,1.001-0.078,1.413l0.035,0.039
		c0.196,0.221,0.472,0.334,0.746,0.334c0.236,0,0.476-0.084,0.666-0.254c0.412-0.368,0.447-1,0.08-1.411
		c-0.004-0.003-0.007-0.007-0.01-0.01c-0.01-0.01-0.02-0.022-0.029-0.032C85.911,17.509,85.64,17.397,85.364,17.397L85.364,17.397z
		 M82.597,14.55c-0.266,0-0.529,0.105-0.727,0.313c-0.379,0.401-0.361,1.034,0.039,1.414l0.039,0.036
		c0.192,0.183,0.439,0.274,0.688,0.274c0.266,0,0.529-0.104,0.727-0.312c0.381-0.401,0.362-1.033-0.037-1.413
		c-0.002-0.001-0.004-0.003-0.006-0.004c0-0.001-0.002-0.002-0.002-0.003c-0.004-0.003-0.007-0.006-0.01-0.009
		c-0.008-0.007-0.016-0.015-0.023-0.022C83.091,14.641,82.844,14.55,82.597,14.55L82.597,14.55z M79.602,11.944
		c-0.293,0-0.583,0.129-0.78,0.375c-0.346,0.432-0.274,1.061,0.155,1.406l0.042,0.033c0.184,0.148,0.405,0.219,0.624,0.219
		c0.293,0,0.584-0.128,0.781-0.375c0.346-0.431,0.276-1.06-0.155-1.405c-0.003-0.002-0.005-0.004-0.008-0.007
		c-0.004-0.003-0.006-0.005-0.01-0.007c-0.001,0-0.001-0.001-0.002-0.001c-0.004-0.003-0.008-0.005-0.01-0.008
		c-0.002-0.001-0.004-0.003-0.006-0.005c-0.004-0.001-0.008-0.005-0.01-0.007C80.04,12.015,79.821,11.944,79.602,11.944
		L79.602,11.944z M76.401,9.596c-0.322,0-0.639,0.155-0.832,0.443c-0.308,0.458-0.186,1.08,0.273,1.388l0.043,0.03
		c0.172,0.115,0.365,0.17,0.559,0.17c0.32,0,0.637-0.155,0.83-0.442c0.309-0.457,0.188-1.076-0.269-1.385
		c-0.019-0.012-0.035-0.024-0.054-0.036C76.782,9.65,76.591,9.596,76.401,9.596L76.401,9.596z M73.014,7.524
		c-0.353,0-0.69,0.185-0.874,0.514c-0.27,0.482-0.095,1.092,0.389,1.36l0.045,0.025c0.154,0.086,0.321,0.126,0.485,0.126
		c0.353,0,0.692-0.185,0.875-0.514c0.269-0.481,0.097-1.088-0.384-1.358c-0.016-0.008-0.03-0.017-0.045-0.025
		c-0.002-0.001-0.004-0.002-0.006-0.004C73.345,7.564,73.178,7.524,73.014,7.524L73.014,7.524z M69.466,5.743
		c-0.382,0-0.745,0.219-0.912,0.589c-0.227,0.503-0.003,1.096,0.501,1.323l0.048,0.022c0.135,0.06,0.273,0.088,0.411,0.088
		c0.381,0,0.745-0.219,0.912-0.588c0.228-0.502,0.005-1.093-0.496-1.321c-0.019-0.008-0.039-0.018-0.058-0.026
		C69.739,5.77,69.602,5.743,69.466,5.743L69.466,5.743z M65.78,4.266c-0.412,0-0.799,0.257-0.943,0.667
		c-0.184,0.521,0.09,1.092,0.611,1.276l0.049,0.017c0.109,0.039,0.223,0.058,0.332,0.058c0.412,0,0.8-0.256,0.943-0.667
		c0.186-0.52-0.087-1.09-0.605-1.275c-0.008-0.002-0.018-0.006-0.024-0.009c-0.01-0.003-0.021-0.007-0.03-0.01
		C66.003,4.285,65.891,4.266,65.78,4.266L65.78,4.266z M61.983,3.105c-0.443,0-0.85,0.298-0.967,0.748
		c-0.139,0.535,0.182,1.081,0.717,1.22l0.051,0.013c0.084,0.022,0.17,0.033,0.254,0.033c0.443,0,0.85-0.298,0.967-0.748
		c0.14-0.535-0.18-1.081-0.714-1.22c-0.005-0.001-0.009-0.002-0.015-0.003l0,0c-0.014-0.003-0.025-0.007-0.039-0.01
		C62.151,3.116,62.067,3.105,61.983,3.105L61.983,3.105z M58.103,2.268c-0.479,0-0.9,0.343-0.984,0.83
		c-0.094,0.545,0.271,1.063,0.816,1.156l0.053,0.009c0.058,0.01,0.113,0.015,0.17,0.015c0.479,0,0.9-0.343,0.985-0.83
		c0.095-0.543-0.271-1.06-0.812-1.155c-0.008-0.001-0.014-0.002-0.021-0.003c-0.013-0.002-0.024-0.004-0.038-0.007
		C58.216,2.273,58.157,2.268,58.103,2.268L58.103,2.268z M54.165,1.76c-0.514,0-0.949,0.392-0.994,0.913
		c-0.049,0.55,0.359,1.036,0.908,1.083l0.054,0.005c0.028,0.002,0.06,0.004,0.088,0.004c0.515,0,0.95-0.393,0.996-0.913
		c0.048-0.55-0.358-1.035-0.908-1.083c-0.004,0-0.008,0-0.012-0.001c-0.015-0.001-0.032-0.002-0.046-0.004
		C54.222,1.761,54.194,1.76,54.165,1.76L54.165,1.76z"/>
</g>
<g>
	<g transform="translate(0,-952.3622)">
		<path fill="#333333" d="M63.715,979.439c-0.281,0.005-0.545,0.139-0.715,0.363l-5,4.997l-36.508,10.432
			c-0.393,0.113-0.664,0.473-0.662,0.881v10.499c0,0.408,0.27,0.767,0.662,0.879l10.564,3.02c-0.775,4.534,1.98,9.014,6.48,10.297
			c4.494,1.282,9.195-1.065,10.934-5.32l8.529,2.438l5,4.996c0.174,0.232,0.451,0.368,0.742,0.365
			c0.506-0.002,0.916-0.412,0.914-0.919c0-0.046-0.004-0.091-0.01-0.138v-41.747c0.068-0.501-0.283-0.963-0.783-1.033
			c-0.02-0.002-0.039-0.004-0.057-0.006C63.775,979.44,63.746,979.439,63.715,979.439L63.715,979.439z M62.812,982.578v37.566
			l-3.414-3.418v-30.73L62.812,982.578L62.812,982.578z M57.564,986.832v29.058l-34.902-9.972v-9.115L57.564,986.832L57.564,986.832
			z M33.826,1011.016l13.873,3.963c-1.449,3.298-5.119,5.077-8.662,4.067C35.492,1018.034,33.314,1014.583,33.826,1011.016
			L33.826,1011.016z"/>
	</g>
	
		<line fill="none" stroke="#A2FF00" stroke-width="2" stroke-linecap="round" stroke-miterlimit="10" x1="69.934" y1="57.13" x2="78.386" y2="65.582"/>
	
		<line fill="none" stroke="#A2FF00" stroke-width="2" stroke-linecap="round" stroke-miterlimit="10" x1="70" y1="49" x2="79" y2="49"/>
	
		<line fill="none" stroke="#A2FF00" stroke-width="2" stroke-linecap="round" stroke-miterlimit="10" x1="69.934" y1="40.314" x2="78.386" y2="31.862"/>
</g>
</svg>
