<?xml version="1.0" encoding="utf-8"?>
<!-- Generator: Adobe Illustrator 15.0.2, SVG Export Plug-In . SVG Version: 6.00 Build 0)  -->
<!DOCTYPE svg PUBLIC "-//W3C//DTD SVG 1.1//EN" "http://www.w3.org/Graphics/SVG/1.1/DTD/svg11.dtd" [
	<!ENTITY st0 "fill:#CCCCCC;">
]>
<svg version="1.1" id="Layer_1" xmlns="http://www.w3.org/2000/svg" xmlns:xlink="http://www.w3.org/1999/xlink" x="0px" y="0px"
	 width="30px" height="26px" viewBox="0 0 30 26" style="enable-background:new 0 0 30 26;" xml:space="preserve">
<g>
	<g>
		<path style="&st0;" d="M28.042,3.569c-3.918,2.542-5.692,5.129-5.321,7.765
			c1.813-0.056,3.389,0.428,4.724,1.451c1.335,1.023,2.113,2.315,2.332,3.877c0.233,1.66-0.137,3.139-1.11,4.436
			c-0.975,1.299-2.32,2.068-4.039,2.311c-1.924,0.27-3.694-0.236-5.312-1.52c-1.617-1.281-2.574-2.98-2.871-5.094
			c-0.892-6.345,2.156-11.833,9.145-16.464L28.042,3.569z"/>
		<path style="&st0;" d="M13.148,4.902C8.986,7.038,6.905,9.547,6.905,12.43
			c1.793,0.214,3.265,0.97,4.416,2.269c1.15,1.299,1.725,2.803,1.725,4.512c0,1.814-0.566,3.346-1.7,4.59
			C10.212,25.047,8.8,25.67,7.108,25.67c-1.895,0-3.527-0.809-4.897-2.428c-1.371-1.619-2.056-3.586-2.056-5.9
			c0-6.94,3.671-12.368,11.013-16.283L13.148,4.902z"/>
	</g>
</g>
</svg>
