<?xml version="1.0" encoding="utf-8"?>
<!-- Generator: Adobe Illustrator 15.0.2, SVG Export Plug-In . SVG Version: 6.00 Build 0)  -->
<!DOCTYPE svg PUBLIC "-//W3C//DTD SVG 1.1//EN" "http://www.w3.org/Graphics/SVG/1.1/DTD/svg11.dtd">
<svg version="1.1" id="Layer_1" xmlns="http://www.w3.org/2000/svg" xmlns:xlink="http://www.w3.org/1999/xlink" x="0px" y="0px"
	 width="100px" height="100px" viewBox="0 0 100 100" enable-background="new 0 0 100 100" xml:space="preserve">
<g>
	<path fill="#A2FF00" d="M49.285,1.419c-0.019,0-0.037,0-0.055,0c-0.552,0-1,0.448-0.999,1c0.001,0.552,0.449,1,1,1c0,0,0,0,0.001,0
		h0.053c0.032,0,0.064-0.001,0.096-0.004c0.032,0.003,0.064,0.004,0.096,0.005h0.053c0.001,0,0.003,0,0.005,0
		c0.55,0,0.997-0.444,1-0.995c0.003-0.552-0.442-1.002-0.995-1.005c-0.011,0-0.023,0-0.034,0c-0.008,0-0.017,0-0.025,0h0
		c-0.032,0-0.064,0.001-0.096,0.004C49.353,1.42,49.319,1.419,49.285,1.419C49.285,1.419,49.285,1.419,49.285,1.419L49.285,1.419z
		 M45.318,1.583c-0.027,0-0.054,0.001-0.081,0.003c-0.021,0.001-0.042,0.003-0.062,0.005c-0.548,0.048-0.955,0.53-0.909,1.079
		c0.044,0.522,0.481,0.917,0.996,0.917c0.028,0,0.056-0.001,0.084-0.003l0.052-0.004c0.55-0.046,0.959-0.529,0.914-1.08
		C46.27,1.978,45.833,1.583,45.318,1.583L45.318,1.583z M41.379,2.075c-0.055,0-0.111,0.004-0.167,0.014
		c-0.018,0.003-0.036,0.006-0.054,0.009c-0.545,0.092-0.912,0.608-0.82,1.152c0.083,0.488,0.506,0.834,0.985,0.834
		c0.055,0,0.111-0.004,0.167-0.014l0.052-0.009c0.545-0.091,0.912-0.607,0.821-1.152C42.281,2.42,41.858,2.075,41.379,2.075
		L41.379,2.075z M37.495,2.896c-0.082,0-0.166,0.01-0.249,0.031c-0.02,0.005-0.038,0.01-0.058,0.015
		c-0.533,0.139-0.854,0.683-0.716,1.216c0.116,0.452,0.523,0.751,0.969,0.751c0.082,0,0.166-0.01,0.249-0.031l0.051-0.013
		c0.535-0.137,0.857-0.682,0.721-1.217C38.346,3.196,37.94,2.896,37.495,2.896L37.495,2.896z M33.693,4.041
		c-0.109,0-0.22,0.018-0.329,0.056c-0.015,0.005-0.03,0.011-0.046,0.016c-0.003,0.001-0.004,0.001-0.007,0.002
		c-0.521,0.182-0.795,0.752-0.614,1.273c0.144,0.413,0.531,0.671,0.945,0.671c0.109,0,0.22-0.018,0.329-0.056l0.05-0.017
		c0.521-0.182,0.797-0.752,0.616-1.273C34.493,4.299,34.106,4.041,33.693,4.041L33.693,4.041z M30.001,5.501
		c-0.136,0-0.274,0.028-0.407,0.087c-0.015,0.007-0.03,0.014-0.045,0.02c-0.001,0.001-0.005,0.002-0.007,0.003
		c-0.503,0.226-0.729,0.816-0.504,1.32c0.166,0.372,0.532,0.593,0.914,0.593c0.136,0,0.275-0.028,0.407-0.087l0.048-0.021
		c0.504-0.225,0.731-0.816,0.506-1.321C30.749,5.722,30.384,5.501,30.001,5.501L30.001,5.501z M26.446,7.268
		c-0.162,0-0.326,0.039-0.479,0.123c-0.019,0.01-0.036,0.02-0.055,0.03c-0.481,0.268-0.655,0.874-0.389,1.356
		c0.183,0.331,0.524,0.518,0.877,0.518c0.164,0,0.329-0.04,0.482-0.125l0.046-0.025c0.483-0.267,0.66-0.875,0.394-1.359
		C27.14,7.455,26.798,7.268,26.446,7.268L26.446,7.268z M23.051,9.326c-0.19,0-0.383,0.054-0.553,0.167
		c-0.003,0.002-0.006,0.004-0.009,0.006c-0.01,0.007-0.019,0.013-0.029,0.02c-0.002,0.001-0.005,0.003-0.008,0.005
		c-0.459,0.306-0.584,0.927-0.277,1.386c0.192,0.289,0.51,0.446,0.833,0.446c0.19,0,0.383-0.055,0.553-0.168l0.044-0.029
		c0.46-0.306,0.584-0.927,0.279-1.387C23.691,9.483,23.374,9.326,23.051,9.326L23.051,9.326z M19.839,11.661
		c-0.218,0-0.437,0.071-0.621,0.217c-0.009,0.007-0.017,0.014-0.026,0.021c-0.007,0.005-0.014,0.011-0.021,0.017
		c-0.429,0.344-0.5,0.97-0.157,1.401c0.198,0.249,0.49,0.378,0.784,0.378c0.218,0,0.438-0.071,0.622-0.217l0.041-0.033
		c0.433-0.343,0.505-0.973,0.162-1.405C20.426,11.791,20.134,11.661,19.839,11.661L19.839,11.661z M16.833,14.255
		c-0.245,0-0.491,0.09-0.684,0.271c-0.003,0.003-0.006,0.005-0.009,0.008c-0.011,0.01-0.023,0.021-0.034,0.032
		c-0.4,0.378-0.419,1.009-0.042,1.411c0.197,0.209,0.463,0.315,0.729,0.315c0.246,0,0.492-0.09,0.685-0.271l0.039-0.036
		c0.402-0.378,0.422-1.011,0.044-1.414C17.366,14.361,17.1,14.255,16.833,14.255L16.833,14.255z M14.054,17.09
		c-0.272,0-0.543,0.11-0.74,0.328c-0.014,0.016-0.028,0.031-0.042,0.046c-0.367,0.41-0.333,1.041,0.077,1.409
		c0.191,0.172,0.43,0.257,0.669,0.257c0.273,0,0.546-0.112,0.744-0.331l0.035-0.04c0.37-0.41,0.337-1.042-0.073-1.413
		C14.532,17.175,14.292,17.09,14.054,17.09L14.054,17.09z M11.519,20.146c-0.301,0-0.6,0.136-0.796,0.395
		c-0.001,0.002-0.003,0.003-0.004,0.005c-0.009,0.012-0.018,0.023-0.027,0.036c0,0.001-0.001,0.002-0.002,0.003
		c-0.334,0.439-0.249,1.066,0.191,1.401c0.181,0.137,0.393,0.204,0.604,0.204c0.302,0,0.601-0.136,0.797-0.395l0.032-0.042
		c0.334-0.439,0.249-1.067-0.19-1.402C11.943,20.212,11.73,20.146,11.519,20.146L11.519,20.146z M9.248,23.402
		c-0.331,0-0.654,0.164-0.844,0.463c-0.002,0.004-0.004,0.007-0.007,0.011c-0.008,0.013-0.016,0.025-0.024,0.038
		c-0.294,0.466-0.156,1.082,0.309,1.377c0.166,0.105,0.352,0.156,0.536,0.156c0.331,0,0.654-0.164,0.845-0.464l0.028-0.044
		c0.296-0.466,0.159-1.084-0.307-1.381C9.618,23.453,9.432,23.402,9.248,23.402L9.248,23.402z M7.256,26.837
		c-0.358,0-0.705,0.194-0.884,0.533c-0.005,0.009-0.01,0.018-0.015,0.028c-0.004,0.008-0.008,0.016-0.012,0.023
		c-0.256,0.489-0.068,1.093,0.421,1.35c0.148,0.078,0.307,0.114,0.463,0.114c0.36,0,0.708-0.195,0.887-0.536l0.025-0.047
		c0.256-0.489,0.068-1.094-0.421-1.351C7.572,26.874,7.413,26.837,7.256,26.837L7.256,26.837z M5.56,30.426
		c-0.39,0-0.76,0.229-0.921,0.611c-0.005,0.012-0.01,0.024-0.015,0.036c-0.001,0.004-0.004,0.011-0.006,0.016
		c-0.214,0.509,0.025,1.094,0.534,1.309c0.126,0.053,0.258,0.078,0.388,0.078c0.39,0,0.761-0.23,0.922-0.612l0.021-0.049
		c0.214-0.509-0.024-1.096-0.533-1.311C5.821,30.452,5.69,30.426,5.56,30.426L5.56,30.426z M4.171,34.146
		c-0.42,0-0.811,0.267-0.949,0.688c-0.003,0.011-0.006,0.02-0.01,0.03c-0.003,0.008-0.005,0.017-0.008,0.025
		c-0.17,0.525,0.117,1.089,0.642,1.26c0.103,0.033,0.207,0.049,0.309,0.049c0.421,0,0.814-0.269,0.951-0.691l0.017-0.05
		c0.17-0.525-0.117-1.089-0.642-1.261C4.378,34.161,4.274,34.146,4.171,34.146L4.171,34.146z M3.101,37.968
		c-0.453,0-0.864,0.311-0.972,0.771c-0.004,0.019-0.009,0.039-0.014,0.057c-0.124,0.537,0.209,1.073,0.747,1.198
		c0.076,0.018,0.153,0.026,0.229,0.026c0.454,0,0.865-0.311,0.973-0.772l0.012-0.051c0.126-0.538-0.208-1.076-0.746-1.202
		C3.254,37.977,3.177,37.968,3.101,37.968L3.101,37.968z M2.356,41.868c-0.487,0-0.913,0.356-0.987,0.852
		c0,0.004-0.001,0.011-0.002,0.016c-0.001,0.009-0.002,0.018-0.004,0.027c0,0.004-0.001,0.01-0.002,0.014
		c-0.08,0.546,0.298,1.054,0.844,1.134c0.049,0.007,0.098,0.011,0.146,0.011c0.488,0,0.916-0.358,0.989-0.855l0.008-0.052
		c0.08-0.546-0.297-1.055-0.844-1.135C2.454,41.872,2.405,41.868,2.356,41.868L2.356,41.868z M1.941,45.816
		c-0.523,0-0.963,0.407-0.997,0.937c0,0.003,0,0.006,0,0.01c-0.001,0.018-0.002,0.032-0.003,0.05
		c-0.032,0.549,0.386,1.021,0.936,1.056c0.021,0.001,0.042,0.002,0.063,0.002c0.524,0,0.964-0.408,0.998-0.938l0.003-0.052
		c0.035-0.551-0.384-1.026-0.936-1.062C1.984,45.817,1.963,45.816,1.941,45.816L1.941,45.816z M1.856,49.788
		c-0.006,0-0.013,0-0.02,0c-0.551,0.011-0.989,0.465-0.98,1.016c0,0.021,0,0.042,0.001,0.063c0.013,0.543,0.458,0.975,0.999,0.975
		c0.007,0,0.014,0,0.021,0c0.552-0.012,0.991-0.468,0.98-1.021l-0.001-0.053C2.845,50.223,2.399,49.788,1.856,49.788L1.856,49.788z
		 M2.097,53.752c-0.034,0-0.068,0.001-0.103,0.005c-0.549,0.057-0.949,0.547-0.893,1.097c0.002,0.016,0.003,0.029,0.005,0.045
		c0,0.003,0,0.007,0.001,0.01c0.053,0.515,0.487,0.897,0.993,0.897c0.035,0,0.069-0.002,0.104-0.006
		c0.549-0.057,0.949-0.548,0.892-1.098l-0.005-0.053C3.038,54.135,2.604,53.752,2.097,53.752L2.097,53.752z M2.667,57.681
		c-0.061,0-0.124,0.006-0.186,0.018C1.939,57.8,1.583,58.32,1.683,58.862c0.003,0.015,0.006,0.033,0.009,0.049
		c0,0.003,0.001,0.006,0.001,0.009c0.091,0.479,0.51,0.814,0.981,0.814c0.062,0,0.125-0.006,0.187-0.018
		c0.543-0.104,0.9-0.626,0.797-1.169l-0.01-0.052C3.558,58.016,3.138,57.681,2.667,57.681L2.667,57.681z M3.563,61.547
		c-0.088,0-0.178,0.013-0.268,0.037c-0.531,0.146-0.842,0.695-0.698,1.226c0.006,0.02,0.011,0.04,0.017,0.06
		c0.124,0.441,0.525,0.73,0.962,0.73c0.089,0,0.179-0.012,0.269-0.037c0.532-0.147,0.844-0.699,0.696-1.231L4.527,62.28
		C4.404,61.838,4.002,61.547,3.563,61.547L3.563,61.547z M4.783,65.325c-0.115,0-0.232,0.02-0.347,0.062
		c-0.517,0.191-0.781,0.765-0.591,1.281c0.004,0.01,0.007,0.019,0.011,0.028c0.003,0.009,0.006,0.018,0.01,0.026
		c0.149,0.403,0.531,0.652,0.937,0.652c0.116,0,0.233-0.021,0.348-0.062c0.518-0.192,0.782-0.769,0.589-1.286l-0.018-0.05
		C5.571,65.574,5.189,65.325,4.783,65.325L4.783,65.325z M6.316,68.986c-0.142,0-0.287,0.03-0.424,0.095
		c-0.5,0.234-0.715,0.83-0.48,1.33c0,0.001,0.001,0.003,0.002,0.004c0.004,0.008,0.006,0.014,0.01,0.021
		c0.002,0.004,0.004,0.009,0.005,0.013c0.002,0.004,0.005,0.011,0.007,0.015c0.171,0.36,0.529,0.571,0.904,0.571
		c0.143,0,0.287-0.03,0.425-0.095c0.5-0.235,0.714-0.831,0.479-1.331l-0.022-0.048C7.052,69.199,6.692,68.986,6.316,68.986
		L6.316,68.986z M8.152,72.506c-0.169,0-0.341,0.044-0.499,0.134c-0.479,0.276-0.643,0.888-0.367,1.366
		c0.005,0.009,0.01,0.017,0.015,0.025c0.005,0.01,0.009,0.017,0.015,0.026c0.186,0.318,0.52,0.496,0.864,0.496
		c0.169,0,0.341-0.044,0.499-0.135c0.478-0.276,0.642-0.888,0.366-1.366L9.02,73.007C8.834,72.686,8.498,72.506,8.152,72.506
		L8.152,72.506z M10.276,75.86c-0.197,0-0.396,0.058-0.569,0.179c-0.453,0.314-0.566,0.937-0.252,1.39
		c0.004,0.006,0.008,0.012,0.012,0.018c0.007,0.01,0.014,0.02,0.021,0.029c0.194,0.279,0.505,0.43,0.821,0.43
		c0.197,0,0.396-0.059,0.57-0.18c0.454-0.315,0.566-0.938,0.251-1.392l-0.03-0.044C10.905,76.011,10.593,75.86,10.276,75.86
		L10.276,75.86z M12.674,79.025c-0.224,0-0.45,0.075-0.636,0.229c-0.426,0.352-0.486,0.981-0.135,1.407l0,0.001
		c0.008,0.009,0.016,0.019,0.024,0.028c0.004,0.005,0.008,0.01,0.012,0.015c0.198,0.238,0.482,0.361,0.77,0.361
		c0.225,0,0.45-0.075,0.637-0.229c0.425-0.352,0.485-0.982,0.134-1.408l-0.034-0.04C13.248,79.149,12.962,79.025,12.674,79.025
		L12.674,79.025z M15.327,81.981c-0.252,0-0.504,0.094-0.699,0.284c-0.396,0.386-0.403,1.019-0.017,1.413
		c0.006,0.007,0.013,0.014,0.019,0.02l0,0c0.006,0.007,0.013,0.014,0.019,0.021c0.196,0.2,0.456,0.301,0.715,0.301
		c0.252,0,0.504-0.095,0.699-0.285c0.395-0.386,0.402-1.02,0.016-1.414l-0.037-0.038C15.846,82.082,15.586,81.981,15.327,81.981
		L15.327,81.981z M18.216,84.705c-0.28,0-0.559,0.117-0.756,0.345c-0.362,0.417-0.317,1.048,0.099,1.409
		c0.015,0.014,0.03,0.026,0.044,0.039c0.189,0.163,0.421,0.242,0.652,0.242c0.28,0,0.559-0.116,0.756-0.345
		c0.361-0.418,0.316-1.05-0.102-1.411l-0.04-0.034C18.681,84.786,18.448,84.705,18.216,84.705L18.216,84.705z M21.321,87.18
		c-0.309,0-0.613,0.143-0.809,0.41c-0.326,0.446-0.229,1.071,0.217,1.397c0.015,0.011,0.03,0.021,0.044,0.032
		c0.178,0.13,0.384,0.192,0.588,0.192c0.309,0,0.613-0.143,0.809-0.411c0.325-0.445,0.228-1.071-0.219-1.397l-0.042-0.031
		C21.732,87.242,21.526,87.18,21.321,87.18L21.321,87.18z M24.622,89.387c-0.337,0-0.667,0.171-0.855,0.48
		c-0.288,0.471-0.139,1.085,0.332,1.372c0.001,0.001,0.003,0.002,0.004,0.003c0.013,0.008,0.025,0.016,0.038,0.023
		c0.002,0.001,0.006,0.004,0.009,0.006c0.162,0.098,0.34,0.144,0.516,0.144c0.337,0,0.667-0.171,0.855-0.479
		c0.287-0.473,0.137-1.088-0.334-1.375l-0.045-0.027C24.979,89.435,24.799,89.387,24.622,89.387L24.622,89.387z M28.095,91.311
		c-0.367,0-0.721,0.202-0.896,0.553c-0.247,0.493-0.047,1.093,0.446,1.341c0.005,0.003,0.011,0.005,0.016,0.008
		c0.012,0.006,0.023,0.012,0.035,0.018c0.144,0.071,0.296,0.105,0.446,0.105c0.367,0,0.72-0.203,0.895-0.554
		c0.247-0.494,0.046-1.095-0.448-1.342l-0.047-0.023C28.397,91.345,28.245,91.311,28.095,91.311L28.095,91.311z M31.716,92.936
		c-0.397,0-0.773,0.238-0.93,0.63c-0.205,0.513,0.045,1.094,0.559,1.299c0.004,0.001,0.008,0.003,0.013,0.005
		c0.013,0.005,0.026,0.01,0.039,0.016c0.122,0.048,0.247,0.07,0.37,0.07c0.397,0,0.773-0.238,0.929-0.63
		c0.204-0.514-0.046-1.095-0.56-1.3l-0.049-0.019C31.964,92.958,31.839,92.936,31.716,92.936L31.716,92.936z M35.461,94.249
		c-0.429,0-0.826,0.278-0.957,0.71c-0.161,0.527,0.136,1.085,0.664,1.246c0.004,0.002,0.005,0.002,0.009,0.003
		c0.015,0.005,0.03,0.01,0.045,0.014c0.097,0.03,0.195,0.044,0.291,0.044c0.429,0,0.825-0.278,0.956-0.71
		c0.16-0.528-0.139-1.087-0.667-1.248l-0.051-0.015C35.655,94.264,35.558,94.249,35.461,94.249L35.461,94.249z M39.303,95.243
		c-0.461,0-0.876,0.321-0.977,0.791c-0.116,0.54,0.229,1.071,0.769,1.187c0.011,0.003,0.022,0.005,0.033,0.008
		c0.008,0.001,0.014,0.003,0.021,0.004c0.07,0.016,0.14,0.022,0.208,0.022c0.462,0,0.876-0.321,0.977-0.792
		c0.115-0.54-0.229-1.071-0.77-1.187l-0.052-0.011C39.443,95.25,39.373,95.243,39.303,95.243L39.303,95.243z M43.217,95.91
		c-0.496,0-0.927,0.369-0.991,0.874c-0.07,0.548,0.317,1.049,0.865,1.118c0.004,0.001,0.007,0.001,0.011,0.002
		c0.016,0.002,0.03,0.004,0.046,0.006c0.042,0.005,0.084,0.008,0.125,0.008c0.496,0,0.926-0.369,0.99-0.874
		c0.069-0.549-0.319-1.049-0.867-1.118l-0.052-0.007C43.301,95.913,43.259,95.91,43.217,95.91L43.217,95.91z M47.173,96.249
		c-0.532,0-0.975,0.42-0.999,0.957c-0.024,0.55,0.401,1.016,0.951,1.042c0.021,0.001,0.041,0.001,0.062,0.002
		c0.014,0.001,0.027,0.001,0.041,0.001c0.533,0,0.975-0.42,0.998-0.957c0.023-0.552-0.405-1.019-0.957-1.042l-0.053-0.002
		C47.203,96.249,47.188,96.249,47.173,96.249L47.173,96.249z M51.2,96.257c-0.013,0-0.026,0-0.039,0.001l-0.053,0.002
		c-0.552,0.021-0.982,0.486-0.961,1.038c0.021,0.539,0.464,0.961,0.998,0.961c0.013,0,0.026,0,0.04,0
		c0.002-0.001,0.005-0.001,0.007-0.001c0.013,0,0.026-0.001,0.039-0.001c0.003,0,0.006-0.001,0.009-0.001
		c0.552-0.021,0.981-0.486,0.96-1.038C52.179,96.68,51.735,96.257,51.2,96.257L51.2,96.257z M55.158,95.936
		c-0.041,0-0.082,0.002-0.123,0.007l-0.053,0.007c-0.548,0.067-0.938,0.566-0.871,1.114c0.062,0.507,0.493,0.878,0.991,0.878
		c0.04,0,0.082-0.002,0.123-0.007c0.004-0.001,0.008-0.001,0.013-0.002c0.001,0,0.002,0,0.004,0
		c0.002-0.001,0.004-0.001,0.006-0.001c0.005-0.001,0.006-0.001,0.011-0.001c0.007-0.001,0.014-0.002,0.021-0.003
		c0.548-0.067,0.938-0.566,0.87-1.114C56.088,96.307,55.656,95.936,55.158,95.936L55.158,95.936z M59.075,95.284
		c-0.068,0-0.138,0.007-0.206,0.021l-0.052,0.011c-0.541,0.112-0.888,0.643-0.774,1.184c0.098,0.472,0.514,0.795,0.977,0.795
		c0.068,0,0.137-0.007,0.206-0.021c0.005-0.001,0.009-0.002,0.014-0.003l0.002-0.001c0.003,0,0.006-0.001,0.009-0.002
		c0.011-0.002,0.022-0.005,0.033-0.007c0.539-0.115,0.883-0.644,0.77-1.183C59.954,95.607,59.538,95.284,59.075,95.284
		L59.075,95.284z M62.921,94.306c-0.095,0-0.191,0.014-0.287,0.043l-0.05,0.015c-0.529,0.158-0.83,0.716-0.673,1.245
		c0.13,0.434,0.527,0.714,0.958,0.714c0.095,0,0.19-0.014,0.286-0.042c0.008-0.003,0.015-0.005,0.022-0.007
		c0.007-0.002,0.016-0.005,0.022-0.007c0.003-0.001,0.006-0.002,0.008-0.003c0.529-0.158,0.83-0.715,0.671-1.244
		C63.749,94.586,63.352,94.306,62.921,94.306L62.921,94.306z M66.672,93.008c-0.122,0-0.246,0.022-0.366,0.069l-0.049,0.02
		c-0.514,0.202-0.767,0.782-0.565,1.297c0.155,0.394,0.532,0.634,0.931,0.634c0.12,0,0.243-0.021,0.362-0.067
		c0.005-0.003,0.012-0.005,0.018-0.008c0.013-0.005,0.024-0.01,0.037-0.015c0.514-0.202,0.767-0.782,0.563-1.296
		C67.448,93.248,67.07,93.008,66.672,93.008L66.672,93.008z M70.3,91.397c-0.149,0-0.3,0.034-0.442,0.104l-0.048,0.023
		c-0.495,0.244-0.698,0.844-0.453,1.34c0.174,0.353,0.528,0.557,0.896,0.557c0.148,0,0.3-0.033,0.441-0.104
		c0.002,0,0.001,0,0.002-0.001c0.017-0.008,0.032-0.016,0.048-0.023c0.495-0.244,0.698-0.845,0.453-1.339
		C71.022,91.603,70.668,91.397,70.3,91.397L70.3,91.397z M73.78,89.489c-0.176,0-0.354,0.046-0.516,0.144L73.22,89.66
		c-0.473,0.285-0.625,0.9-0.34,1.373c0.188,0.312,0.518,0.484,0.856,0.484c0.175,0,0.352-0.046,0.512-0.143
		c0.018-0.01,0.037-0.021,0.054-0.032c0.471-0.286,0.621-0.898,0.336-1.37C74.45,89.661,74.119,89.489,73.78,89.489L73.78,89.489z
		 M77.09,87.296c-0.203,0-0.408,0.062-0.585,0.189l-0.043,0.031c-0.447,0.324-0.548,0.949-0.225,1.396
		c0.195,0.271,0.501,0.414,0.811,0.414c0.203,0,0.408-0.062,0.586-0.189c0.006-0.005,0.011-0.009,0.017-0.013
		c0.01-0.007,0.021-0.015,0.03-0.021c0.445-0.324,0.544-0.948,0.221-1.395C77.706,87.439,77.4,87.296,77.09,87.296L77.09,87.296z
		 M80.206,84.834c-0.231,0-0.463,0.079-0.651,0.241l-0.04,0.034c-0.419,0.36-0.467,0.992-0.107,1.411
		c0.197,0.23,0.478,0.349,0.759,0.349c0.23,0,0.462-0.08,0.65-0.242c0.012-0.009,0.023-0.019,0.034-0.028
		c0.004-0.003,0.006-0.006,0.01-0.009c0.417-0.359,0.464-0.99,0.104-1.408C80.767,84.952,80.487,84.834,80.206,84.834L80.206,84.834
		z M83.106,82.121c-0.259,0-0.518,0.1-0.713,0.299l-0.037,0.037c-0.388,0.394-0.383,1.027,0.011,1.415
		c0.194,0.191,0.448,0.287,0.701,0.287c0.258,0,0.517-0.1,0.712-0.298c0.013-0.013,0.026-0.026,0.039-0.039
		c0.388-0.394,0.382-1.026-0.012-1.414C83.613,82.217,83.359,82.121,83.106,82.121L83.106,82.121z M85.771,79.177
		c-0.287,0-0.572,0.123-0.77,0.36l-0.034,0.041c-0.354,0.424-0.296,1.055,0.128,1.408c0.188,0.156,0.414,0.232,0.64,0.232
		c0.286,0,0.57-0.122,0.768-0.359c0.002-0.002,0.002-0.002,0.004-0.005c0.011-0.013,0.021-0.025,0.032-0.038
		c0.354-0.425,0.296-1.055-0.129-1.408C86.224,79.253,85.997,79.177,85.771,79.177L85.771,79.177z M88.182,76.021
		c-0.315,0-0.626,0.148-0.82,0.427l-0.03,0.043c-0.317,0.452-0.207,1.076,0.245,1.394c0.174,0.122,0.374,0.181,0.572,0.181
		c0.314,0,0.624-0.147,0.819-0.425c0.006-0.009,0.011-0.016,0.017-0.024c0.005-0.007,0.011-0.015,0.016-0.021
		c0.316-0.452,0.207-1.076-0.246-1.393C88.579,76.08,88.38,76.021,88.182,76.021L88.182,76.021z M90.32,72.676
		c-0.345,0-0.681,0.179-0.866,0.497l-0.026,0.046c-0.278,0.478-0.116,1.09,0.36,1.368c0.158,0.092,0.332,0.136,0.503,0.136
		c0.344,0,0.679-0.178,0.864-0.496c0.005-0.009,0.01-0.017,0.015-0.025c0.005-0.008,0.011-0.019,0.016-0.026
		c0.274-0.477,0.112-1.086-0.363-1.363C90.664,72.72,90.49,72.676,90.32,72.676L90.32,72.676z M92.17,69.164
		c-0.374,0-0.733,0.211-0.904,0.571l-0.022,0.048c-0.237,0.498-0.025,1.096,0.474,1.333c0.139,0.065,0.285,0.097,0.429,0.097
		c0.374,0,0.732-0.211,0.903-0.57c0.007-0.015,0.014-0.028,0.021-0.042c0.001-0.003,0.003-0.007,0.004-0.01
		c0.236-0.499,0.023-1.094-0.475-1.33C92.46,69.195,92.314,69.164,92.17,69.164L92.17,69.164z M93.719,65.509
		c-0.405,0-0.786,0.248-0.937,0.649l-0.019,0.049c-0.194,0.517,0.067,1.094,0.584,1.288c0.116,0.044,0.234,0.064,0.352,0.064
		c0.404,0,0.785-0.247,0.936-0.648c0.002-0.003,0.003-0.006,0.004-0.01c0.001-0.001,0.002-0.004,0.002-0.005
		c0.001-0.002,0.001-0.003,0.002-0.004c0.004-0.012,0.009-0.024,0.013-0.036c0.192-0.516-0.069-1.09-0.586-1.284
		C93.954,65.529,93.835,65.509,93.719,65.509L93.719,65.509z M94.954,61.736c-0.438,0-0.839,0.288-0.963,0.729l-0.015,0.051
		c-0.149,0.531,0.159,1.084,0.691,1.234c0.091,0.025,0.182,0.038,0.272,0.038c0.436,0,0.837-0.288,0.961-0.729
		c0-0.001,0.001-0.003,0.001-0.004c0.006-0.02,0.01-0.034,0.016-0.054c0.146-0.53-0.163-1.08-0.692-1.229
		C95.135,61.749,95.043,61.736,94.954,61.736L94.954,61.736z M95.866,57.873c-0.47,0-0.889,0.333-0.981,0.812l-0.01,0.052
		c-0.104,0.542,0.25,1.067,0.792,1.172c0.064,0.013,0.129,0.019,0.191,0.019c0.468,0,0.886-0.33,0.979-0.806
		c0.003-0.018,0.007-0.034,0.01-0.051c0-0.003,0.001-0.006,0.001-0.008c0.105-0.542-0.25-1.066-0.792-1.171
		C95.993,57.879,95.929,57.873,95.866,57.873L95.866,57.873z M96.452,53.947c-0.505,0-0.938,0.381-0.993,0.894l-0.006,0.053
		c-0.06,0.549,0.338,1.042,0.888,1.102c0.036,0.004,0.072,0.006,0.108,0.006c0.504,0,0.937-0.38,0.992-0.893
		c0.001-0.009,0.002-0.018,0.003-0.026s0.002-0.018,0.003-0.026c0-0.002,0-0.002,0-0.004c0.059-0.549-0.339-1.04-0.888-1.099
		C96.523,53.949,96.487,53.947,96.452,53.947L96.452,53.947z M96.71,49.984c-0.542,0-0.987,0.433-1,0.977l-0.001,0.053
		c-0.014,0.552,0.423,1.01,0.976,1.023c0.008,0,0.017,0.001,0.024,0.001c0.541,0,0.986-0.433,0.999-0.976c0-0.008,0-0.015,0-0.021
		c0.001-0.011,0.001-0.026,0.001-0.038c0.012-0.55-0.425-1.006-0.976-1.019C96.726,49.984,96.718,49.984,96.71,49.984L96.71,49.984z
		 M96.641,46.012c-0.021,0-0.04,0.001-0.061,0.002c-0.551,0.033-0.972,0.506-0.939,1.057l0.003,0.053
		c0.031,0.532,0.473,0.942,0.998,0.942c0.02,0,0.039,0,0.059-0.002c0.552-0.032,0.973-0.505,0.94-1.056
		c-0.001-0.004-0.001-0.009-0.001-0.013c0-0.003-0.001-0.011-0.001-0.014c-0.001-0.009-0.001-0.019-0.002-0.027
		C97.605,46.422,97.166,46.012,96.641,46.012L96.641,46.012z M96.241,42.062c-0.047,0-0.095,0.003-0.143,0.01
		c-0.547,0.079-0.927,0.585-0.849,1.132l0.008,0.052c0.071,0.499,0.499,0.859,0.989,0.859c0.047,0,0.094-0.003,0.142-0.01
		c0.547-0.078,0.927-0.584,0.849-1.131c0-0.003-0.001-0.007-0.001-0.011c-0.001-0.005-0.001-0.006-0.002-0.011c0,0,0-0.001,0-0.002
		c-0.001-0.001-0.001-0.003-0.001-0.005c-0.001-0.008-0.003-0.017-0.004-0.025C97.158,42.421,96.731,42.062,96.241,42.062
		L96.241,42.062z M95.514,38.159c-0.075,0-0.15,0.008-0.226,0.025c-0.538,0.124-0.874,0.661-0.751,1.199l0.012,0.051
		c0.106,0.463,0.519,0.777,0.975,0.777c0.074,0,0.149-0.008,0.225-0.025c0.538-0.124,0.874-0.66,0.751-1.198
		c-0.005-0.018-0.009-0.036-0.013-0.054C96.38,38.472,95.969,38.159,95.514,38.159L95.514,38.159z M94.459,34.332
		c-0.102,0-0.204,0.015-0.307,0.048c-0.525,0.169-0.814,0.732-0.646,1.258l0.017,0.05c0.136,0.424,0.529,0.695,0.952,0.695
		c0.102,0,0.204-0.016,0.306-0.048c0.525-0.168,0.814-0.73,0.647-1.256c-0.004-0.01-0.007-0.02-0.01-0.03
		c-0.003-0.008-0.005-0.016-0.008-0.024C95.274,34.602,94.882,34.332,94.459,34.332L94.459,34.332z M93.086,30.607
		c-0.129,0-0.259,0.025-0.385,0.078c-0.51,0.212-0.751,0.798-0.538,1.308l0.02,0.048c0.16,0.384,0.532,0.616,0.925,0.616
		c0.128,0,0.258-0.024,0.384-0.077c0.509-0.212,0.75-0.794,0.54-1.304c-0.004-0.008-0.007-0.017-0.011-0.025
		c-0.004-0.01-0.008-0.019-0.012-0.029C93.849,30.838,93.478,30.607,93.086,30.607L93.086,30.607z M91.404,27.011
		c-0.155,0-0.312,0.037-0.46,0.113c-0.49,0.255-0.682,0.859-0.427,1.349l0.024,0.046c0.178,0.343,0.527,0.54,0.889,0.54
		c0.155,0,0.312-0.036,0.459-0.112c0.49-0.254,0.682-0.855,0.429-1.345c-0.002-0.005-0.006-0.012-0.009-0.017
		c-0.006-0.012-0.012-0.023-0.018-0.034C92.114,27.208,91.766,27.011,91.404,27.011L91.404,27.011z M89.427,23.568
		c-0.182,0-0.366,0.05-0.532,0.155c-0.467,0.294-0.607,0.913-0.312,1.379l0.028,0.045c0.19,0.302,0.515,0.467,0.848,0.467
		c0.182,0,0.366-0.05,0.532-0.154c0.467-0.294,0.607-0.912,0.312-1.379c-0.009-0.014-0.018-0.028-0.026-0.042
		c-0.001-0.001-0.003-0.003-0.003-0.004C90.083,23.733,89.759,23.568,89.427,23.568L89.427,23.568z M87.169,20.302
		c-0.209,0-0.421,0.066-0.601,0.202c-0.441,0.333-0.529,0.96-0.196,1.401l0.031,0.042c0.197,0.261,0.497,0.398,0.8,0.398
		c0.21,0,0.421-0.065,0.602-0.201c0.44-0.332,0.528-0.957,0.198-1.398c-0.011-0.015-0.024-0.032-0.035-0.046
		C87.771,20.439,87.473,20.302,87.169,20.302L87.169,20.302z M84.647,17.236c-0.237,0-0.476,0.084-0.666,0.254
		c-0.412,0.368-0.447,1.001-0.079,1.413l0.035,0.039c0.197,0.221,0.472,0.334,0.746,0.334c0.237,0,0.476-0.084,0.666-0.254
		c0.412-0.368,0.448-1,0.08-1.411c-0.003-0.003-0.006-0.007-0.009-0.01c-0.01-0.01-0.02-0.022-0.029-0.032
		C85.194,17.348,84.922,17.236,84.647,17.236L84.647,17.236z M81.879,14.389c-0.265,0-0.529,0.105-0.726,0.313
		c-0.38,0.401-0.362,1.034,0.039,1.414l0.038,0.036c0.193,0.183,0.44,0.274,0.688,0.274c0.265,0,0.529-0.104,0.727-0.312
		c0.38-0.401,0.362-1.033-0.038-1.413c-0.001-0.001-0.003-0.003-0.005-0.004c-0.001-0.001-0.002-0.002-0.003-0.003
		c-0.003-0.003-0.006-0.006-0.009-0.009c-0.008-0.007-0.016-0.015-0.023-0.022C82.373,14.48,82.126,14.389,81.879,14.389
		L81.879,14.389z M78.884,11.783c-0.293,0-0.583,0.129-0.781,0.375c-0.345,0.432-0.274,1.061,0.156,1.406l0.042,0.033
		c0.184,0.148,0.405,0.219,0.624,0.219c0.293,0,0.584-0.128,0.781-0.375c0.346-0.431,0.276-1.06-0.155-1.405
		c-0.003-0.002-0.005-0.004-0.008-0.007c-0.004-0.003-0.006-0.005-0.01-0.007c-0.001,0-0.001-0.001-0.002-0.001
		c-0.003-0.003-0.007-0.005-0.01-0.008c-0.002-0.001-0.004-0.003-0.006-0.005c-0.003-0.001-0.007-0.005-0.009-0.007
		C79.322,11.854,79.103,11.783,78.884,11.783L78.884,11.783z M75.683,9.435c-0.322,0-0.638,0.155-0.831,0.443
		c-0.308,0.458-0.186,1.08,0.273,1.388l0.043,0.03c0.172,0.115,0.365,0.17,0.558,0.17c0.321,0,0.638-0.155,0.831-0.442
		c0.308-0.457,0.188-1.076-0.269-1.385c-0.018-0.012-0.035-0.024-0.053-0.036C76.065,9.489,75.873,9.435,75.683,9.435L75.683,9.435z
		 M72.296,7.363c-0.352,0-0.691,0.185-0.874,0.514c-0.269,0.482-0.095,1.092,0.388,1.36l0.046,0.025
		c0.154,0.086,0.321,0.126,0.485,0.126c0.352,0,0.692-0.185,0.875-0.514c0.269-0.481,0.097-1.088-0.384-1.358
		c-0.015-0.008-0.03-0.017-0.045-0.025c-0.002-0.001-0.004-0.002-0.006-0.004C72.627,7.403,72.46,7.363,72.296,7.363L72.296,7.363z
		 M68.748,5.582c-0.382,0-0.745,0.219-0.912,0.589c-0.227,0.503-0.003,1.096,0.501,1.323l0.048,0.022
		c0.134,0.06,0.273,0.088,0.411,0.088c0.381,0,0.745-0.219,0.912-0.588c0.227-0.502,0.005-1.093-0.496-1.321
		c-0.018-0.008-0.039-0.018-0.058-0.026C69.022,5.609,68.884,5.582,68.748,5.582L68.748,5.582z M65.062,4.105
		c-0.412,0-0.798,0.257-0.943,0.667c-0.184,0.521,0.09,1.092,0.611,1.276l0.049,0.017c0.11,0.039,0.223,0.058,0.333,0.058
		c0.412,0,0.799-0.256,0.943-0.667c0.185-0.52-0.087-1.09-0.606-1.275c-0.007-0.002-0.017-0.006-0.024-0.009
		c-0.01-0.003-0.02-0.007-0.03-0.01C65.285,4.124,65.173,4.105,65.062,4.105L65.062,4.105z M61.266,2.944
		c-0.444,0-0.85,0.298-0.967,0.748c-0.139,0.535,0.182,1.081,0.716,1.22l0.052,0.013c0.084,0.022,0.169,0.033,0.253,0.033
		c0.444,0,0.85-0.298,0.967-0.748c0.14-0.535-0.18-1.081-0.714-1.22c-0.005-0.001-0.009-0.002-0.014-0.003h-0.001
		c-0.013-0.003-0.025-0.007-0.039-0.01C61.434,2.955,61.35,2.944,61.266,2.944L61.266,2.944z M57.385,2.107
		c-0.479,0-0.9,0.343-0.984,0.83C56.307,3.482,56.672,4,57.217,4.093l0.052,0.009c0.058,0.01,0.114,0.015,0.171,0.015
		c0.478,0,0.9-0.343,0.985-0.83c0.094-0.543-0.27-1.06-0.812-1.155c-0.007-0.001-0.014-0.002-0.02-0.003
		c-0.013-0.002-0.025-0.004-0.038-0.007C57.498,2.112,57.44,2.107,57.385,2.107L57.385,2.107z M53.447,1.599
		c-0.513,0-0.949,0.392-0.994,0.913c-0.048,0.55,0.359,1.036,0.909,1.083L53.415,3.6c0.029,0.002,0.059,0.004,0.088,0.004
		c0.514,0,0.95-0.393,0.996-0.913c0.048-0.55-0.358-1.035-0.908-1.083c-0.004,0-0.008,0-0.012-0.001
		c-0.015-0.001-0.032-0.002-0.046-0.004C53.504,1.6,53.476,1.599,53.447,1.599L53.447,1.599z"/>
</g>
<g>
	<path fill="#333333" d="M48.986,18.759c-14.006,0-25.345,11.428-25.345,25.486c0,6.642,2.56,12.7,6.715,17.239l-6.467,11.261
		c-0.275,0.499-0.385,1.106-0.11,1.635c0.303,0.524,0.908,0.774,1.458,0.774l5.944,0.056l3.028,5.119
		c0.274,0.499,0.797,0.912,1.403,0.912c0.605,0,1.1-0.386,1.375-0.912l6.439-11.233c1.79,0.387,3.632,0.606,5.558,0.606
		c1.9,0,3.771-0.222,5.56-0.606l6.468,11.233c0.303,0.524,0.797,0.912,1.403,0.912c0.577,0,1.101-0.413,1.401-0.912l2.975-5.119
		l5.971-0.056c0.578,0,1.184-0.25,1.459-0.774c0.273-0.526,0.164-1.136-0.109-1.635l-6.495-11.261
		c4.153-4.539,6.715-10.599,6.715-17.239C74.332,30.188,62.966,18.759,48.986,18.759L48.986,18.759z M48.985,19.712
		c13.498,0,24.428,10.961,24.428,24.535c0,6.588-2.571,12.522-6.776,16.922c0,0.03-0.027,0.03-0.058,0.06v0.026
		c-0.79,0.796-1.61,1.562-2.486,2.243c-0.026,0.029-0.058,0.029-0.083,0.059c-0.765,0.596-1.525,1.135-2.345,1.646
		c-0.058,0.028-0.113,0.087-0.171,0.114c-0.225,0.144-0.451,0.256-0.678,0.397c-0.084,0.056-0.196,0.084-0.281,0.142
		c-0.648,0.369-1.355,0.683-2.032,0.967c-2.938,1.248-6.157,1.931-9.519,1.931c-2.54,0-4.97-0.369-7.285-1.079
		c-0.763-0.256-1.497-0.539-2.231-0.852c-0.423-0.172-0.847-0.369-1.242-0.568c-0.142-0.059-0.254-0.143-0.368-0.197
		c-0.281-0.144-0.564-0.285-0.818-0.455c-0.198-0.084-0.395-0.172-0.565-0.283c-0.057-0.027-0.084-0.086-0.141-0.113
		c-0.847-0.512-1.638-1.079-2.4-1.674c-0.876-0.711-1.723-1.449-2.514-2.273c-0.028-0.057-0.084-0.057-0.113-0.113
		c-4.179-4.399-6.721-10.334-6.721-16.896C24.588,30.672,35.488,19.712,48.985,19.712L48.985,19.712z M31.193,62.355
		c3.106,2.976,6.922,5.233,11.153,6.485L35.66,80.533c-0.029,0.027-0.029,0.027-0.029,0.059c-0.03-0.029-0.03-0.029-0.061-0.089
		l-3.491-5.892c-0.148-0.269-0.414-0.413-0.71-0.413l-6.863-0.062c-0.061,0-0.061-0.03-0.061-0.03c0-0.027,0-0.027,0-0.06
		L31.193,62.355L31.193,62.355z M66.802,62.293l6.716,11.689c0.029,0.06,0.029,0.06,0.029,0.09c-0.029,0-0.029,0-0.061,0
		l-6.894,0.06c-0.268,0-0.562,0.147-0.68,0.416l-3.46,5.89l-0.03,0.029c0,0.029-0.028,0.029-0.028,0.061
		c-0.029-0.029-0.029-0.029-0.029-0.061L55.62,68.777C59.852,67.529,63.695,65.268,66.802,62.293L66.802,62.293z"/>
</g>
<path fill="#A2FF00" d="M32.132,43.449c-0.413,0.028-0.771,0.415-0.743,0.803c0.027,0.415,0.413,0.774,0.826,0.748h33.6
	c0.414,0.026,0.8-0.36,0.8-0.775s-0.388-0.775-0.8-0.775H32.213C32.186,43.449,32.158,43.449,32.132,43.449L32.132,43.449z"/>
<path fill="#A2FF00" d="M39.595,33.535c-0.412,0.056-0.743,0.469-0.66,0.884c0.055,0.416,0.468,0.72,0.88,0.665h18.466
	c0.412,0.027,0.797-0.359,0.797-0.775c0-0.415-0.387-0.773-0.797-0.773H39.815c-0.055,0-0.11,0-0.166,0
	C39.649,33.535,39.622,33.535,39.595,33.535L39.595,33.535z"/>
<path fill="#A2FF00" d="M39.595,53.348c-0.412,0.055-0.743,0.469-0.66,0.883c0.055,0.416,0.468,0.722,0.88,0.666h18.466
	c0.412,0.027,0.797-0.358,0.797-0.774s-0.387-0.772-0.797-0.772H39.815c-0.055,0-0.11,0-0.166,0
	C39.649,53.348,39.622,53.348,39.595,53.348L39.595,53.348z"/>
</svg>
