<?xml version="1.0" encoding="utf-8"?>
<!-- Generator: Adobe Illustrator 15.0.2, SVG Export Plug-In . SVG Version: 6.00 Build 0)  -->
<!DOCTYPE svg PUBLIC "-//W3C//DTD SVG 1.1//EN" "http://www.w3.org/Graphics/SVG/1.1/DTD/svg11.dtd">
<svg version="1.1" id="Layer_1" xmlns="http://www.w3.org/2000/svg" xmlns:xlink="http://www.w3.org/1999/xlink" x="0px" y="0px"
	 width="100px" height="100px" viewBox="0 0 100 100" enable-background="new 0 0 100 100" xml:space="preserve">
<circle fill="none" stroke="#A2FF00" stroke-width="0.7" stroke-miterlimit="10" cx="50.285" cy="49.857" r="48.438"/>
<g>
	<path fill="#333333" d="M49.986,18.759c-14.006,0-25.345,11.428-25.345,25.486c0,6.642,2.56,12.701,6.715,17.239l-6.467,11.261
		c-0.275,0.499-0.385,1.107-0.11,1.635c0.303,0.525,0.908,0.775,1.458,0.775l5.944,0.055l3.028,5.119
		c0.274,0.499,0.797,0.912,1.403,0.912c0.605,0,1.1-0.386,1.375-0.912l6.439-11.233c1.79,0.386,3.632,0.606,5.558,0.606
		c1.9,0,3.771-0.222,5.56-0.606l6.467,11.233c0.303,0.524,0.798,0.912,1.404,0.912c0.577,0,1.1-0.413,1.402-0.912l2.974-5.119
		l5.97-0.055c0.579,0,1.184-0.25,1.459-0.775c0.274-0.527,0.165-1.136-0.109-1.635l-6.495-11.261
		c4.154-4.538,6.715-10.598,6.715-17.239C75.332,30.188,63.966,18.759,49.986,18.759L49.986,18.759z M49.985,19.712
		c13.498,0,24.428,10.961,24.428,24.535c0,6.588-2.571,12.522-6.777,16.922c0,0.03-0.027,0.03-0.057,0.059v0.027
		c-0.79,0.796-1.61,1.562-2.486,2.243c-0.027,0.029-0.058,0.029-0.083,0.058c-0.765,0.596-1.526,1.136-2.345,1.646
		c-0.058,0.029-0.113,0.087-0.171,0.114c-0.225,0.144-0.451,0.256-0.677,0.398c-0.084,0.056-0.197,0.084-0.282,0.141
		c-0.649,0.37-1.356,0.683-2.032,0.967c-2.938,1.249-6.158,1.931-9.519,1.931c-2.54,0-4.97-0.369-7.285-1.079
		c-0.763-0.256-1.497-0.539-2.231-0.852c-0.423-0.171-0.847-0.369-1.242-0.568c-0.142-0.058-0.254-0.142-0.368-0.198
		c-0.281-0.143-0.564-0.284-0.818-0.454c-0.198-0.085-0.395-0.172-0.565-0.284c-0.057-0.027-0.084-0.086-0.141-0.113
		c-0.847-0.511-1.638-1.079-2.4-1.674c-0.876-0.71-1.723-1.449-2.514-2.273c-0.028-0.057-0.084-0.057-0.113-0.114
		c-4.179-4.399-6.721-10.334-6.721-16.895C25.588,30.672,36.488,19.712,49.985,19.712L49.985,19.712z M32.193,62.355
		c3.106,2.976,6.922,5.234,11.153,6.486L36.66,80.533c-0.029,0.028-0.029,0.028-0.029,0.059c-0.03-0.03-0.03-0.03-0.061-0.089
		l-3.491-5.891c-0.148-0.269-0.414-0.414-0.71-0.414l-6.863-0.062c-0.061,0-0.061-0.03-0.061-0.03c0-0.028,0-0.028,0-0.06
		L32.193,62.355L32.193,62.355z M67.802,62.293l6.715,11.69c0.03,0.059,0.03,0.059,0.03,0.089c-0.03,0-0.03,0-0.06,0l-6.894,0.06
		c-0.268,0-0.562,0.148-0.68,0.416l-3.46,5.89l-0.03,0.029c0,0.029-0.028,0.029-0.028,0.061c-0.03-0.03-0.03-0.03-0.03-0.061
		l-6.745-11.69C60.851,67.53,64.696,65.268,67.802,62.293L67.802,62.293z"/>
</g>
<path fill="#A2FF00" d="M33.132,43.449c-0.413,0.028-0.771,0.415-0.743,0.803c0.027,0.415,0.413,0.774,0.826,0.748h33.6
	c0.413,0.026,0.799-0.36,0.799-0.775s-0.387-0.775-0.799-0.775H33.213C33.186,43.449,33.158,43.449,33.132,43.449L33.132,43.449z"/>
<path fill="#A2FF00" d="M40.595,33.535c-0.412,0.056-0.743,0.469-0.66,0.884c0.055,0.416,0.468,0.72,0.88,0.665h18.466
	c0.413,0.027,0.797-0.359,0.797-0.775c0-0.415-0.386-0.773-0.797-0.773H40.815c-0.055,0-0.11,0-0.166,0
	C40.649,33.535,40.622,33.535,40.595,33.535L40.595,33.535z"/>
<path fill="#A2FF00" d="M40.595,53.348c-0.412,0.055-0.743,0.469-0.66,0.883c0.055,0.416,0.468,0.721,0.88,0.666h18.466
	c0.413,0.027,0.797-0.359,0.797-0.775s-0.386-0.773-0.797-0.773H40.815c-0.055,0-0.11,0-0.166,0
	C40.649,53.348,40.622,53.348,40.595,53.348L40.595,53.348z"/>
</svg>
