<?xml version="1.0" encoding="utf-8"?>
<!-- Generator: Adobe Illustrator 15.0.2, SVG Export Plug-In . SVG Version: 6.00 Build 0)  -->
<!DOCTYPE svg PUBLIC "-//W3C//DTD SVG 1.1//EN" "http://www.w3.org/Graphics/SVG/1.1/DTD/svg11.dtd">
<svg version="1.1" id="Layer_1" xmlns="http://www.w3.org/2000/svg" xmlns:xlink="http://www.w3.org/1999/xlink" x="0px" y="0px"
	 width="100px" height="100px" viewBox="0 0 100 100" enable-background="new 0 0 100 100" xml:space="preserve">
<circle fill="none" stroke="#A2FF00" stroke-width="0.7" stroke-miterlimit="10" cx="50" cy="49.857" r="48.438"/>
<g>
	<path fill="#333333" d="M57.127,46.753c0,2.911-3.274,5.732-3.681,6.789c-0.407,1.057-0.593,2.699-0.593,2.699
		c0,0.654-0.53,1.188-1.187,1.188H50.21l0,0h-1.568c-0.655,0-1.186-0.53-1.186-1.188c0,0-0.186-1.643-0.593-2.699
		c-0.408-1.057-3.683-3.878-3.683-6.789c0-3.853,3.084-6.982,6.919-7.062v-0.003c0.018,0,0.036,0.001,0.055,0.001
		s0.037-0.001,0.056-0.001v0.003C54.043,39.771,57.127,42.9,57.127,46.753z M48.221,59.895l3.903-0.677v-0.439l-3.903,0.675V59.895z
		 M48.221,60.924l3.903-0.676V59.82l-3.903,0.676V60.924z M48.23,61.523c0.049,0.61,0.555,1.091,1.176,1.091h1.531
		c0.655,0,1.187-0.53,1.187-1.186v-0.578L48.23,61.523z M52.124,58.177v-0.25c-0.14,0.059-0.295,0.093-0.457,0.093H50.21l0,0h-1.568
		c-0.149,0-0.289-0.031-0.421-0.081v0.914L52.124,58.177z"/>
	<g>
		<path fill="#333333" d="M42.053,49.57H28.012c-0.328,0-0.593,0.266-0.593,0.593c0,0.328,0.265,0.593,0.593,0.593h14.665
			C42.45,50.379,42.236,49.983,42.053,49.57z"/>
		<path fill="#333333" d="M42.161,43.164c0.169-0.377,0.362-0.742,0.583-1.095l-7.873-7.873c-0.231-0.232-0.606-0.232-0.839,0
			c-0.231,0.231-0.231,0.606,0,0.838L42.161,43.164z"/>
		<path fill="#333333" d="M50.112,37.909c0.014,0,0.028,0.001,0.042,0.001c0.013,0,0.028-0.001,0.041-0.001l0.397-0.002v-9.732
			c0-0.328-0.266-0.593-0.594-0.593c-0.327,0-0.592,0.266-0.592,0.593v9.729L50.112,37.909z"/>
		<path fill="#333333" d="M58.05,42.952l7.918-7.918c0.231-0.231,0.231-0.607,0-0.838c-0.231-0.232-0.608-0.232-0.84,0l-7.684,7.685
			C57.672,42.225,57.873,42.582,58.05,42.952z"/>
		<path fill="#333333" d="M71.988,49.57H58.255c-0.183,0.413-0.396,0.809-0.623,1.187h14.356c0.328,0,0.592-0.265,0.592-0.592
			C72.58,49.837,72.316,49.57,71.988,49.57z"/>
		<path fill="#333333" d="M55.041,54.367c-0.135,0.409-0.242,0.927-0.316,1.36l10.402,10.404c0.117,0.115,0.27,0.173,0.42,0.173
			c0.152,0,0.305-0.058,0.42-0.173c0.232-0.231,0.232-0.607,0-0.839L55.041,54.367z"/>
		<path fill="#333333" d="M45.216,54.217c-0.011-0.019-0.026-0.042-0.042-0.066L34.032,65.293c-0.231,0.231-0.231,0.607,0,0.839
			c0.116,0.115,0.268,0.173,0.42,0.173c0.151,0,0.303-0.058,0.419-0.173l10.665-10.665C45.454,55.039,45.347,54.567,45.216,54.217z"
			/>
		<path fill="#333333" d="M49.407,64.393v7.761c0,0.326,0.266,0.591,0.593,0.591c0.328,0,0.593-0.265,0.593-0.591v-7.761H49.407z"/>
	</g>
	<circle fill="#A2FF00" cx="50" cy="20.861" r="3.558"/>
	<circle fill="#A2FF00" cx="50" cy="78.972" r="3.558"/>
	<circle fill="#A2FF00" cx="70.545" cy="29.372" r="3.558"/>
	<circle fill="#A2FF00" cx="29.455" cy="70.46" r="3.558"/>
	<circle fill="#A2FF00" cx="79.055" cy="49.916" r="3.558"/>
	<circle fill="#A2FF00" cx="20.945" cy="49.916" r="3.558"/>
	<circle fill="#A2FF00" cx="29.455" cy="29.372" r="3.558"/>
	<circle fill="#A2FF00" cx="70.545" cy="70.46" r="3.558"/>
</g>
</svg>
