<?xml version="1.0" encoding="utf-8"?>
<!-- Generator: Adobe Illustrator 15.0.2, SVG Export Plug-In . SVG Version: 6.00 Build 0)  -->
<!DOCTYPE svg PUBLIC "-//W3C//DTD SVG 1.1//EN" "http://www.w3.org/Graphics/SVG/1.1/DTD/svg11.dtd">
<svg version="1.1" id="Layer_1" xmlns="http://www.w3.org/2000/svg" xmlns:xlink="http://www.w3.org/1999/xlink" x="0px" y="0px"
	 width="75.821px" height="14.048px" viewBox="0 0 75.821 14.048" enable-background="new 0 0 75.821 14.048" xml:space="preserve">
<g>
	<polygon fill="#707172" points="7,10.89 11.326,14.048 9.66,8.958 14,5.819 8.644,5.831 7,0.733 5.356,5.831 0,5.819 4.34,8.958 
		2.674,14.048 	"/>
	<g>
		<path fill="#C2C2C2" d="M67.188,3.992l0.692,2.146l0.224,0.695l0.729-0.001l2.256-0.005l-1.827,1.321L68.67,8.575l0.227,0.694
			l0.701,2.143l-1.821-1.33l-0.59-0.431l-0.59,0.431l-1.821,1.33l0.701-2.143l0.227-0.694l-0.591-0.428l-1.827-1.321l2.256,0.005
			l0.729,0.001l0.224-0.695L67.188,3.992 M67.188,0.733l-1.644,5.098l-5.356-0.012l4.34,3.139l-1.666,5.09l4.326-3.158l4.326,3.158
			l-1.666-5.09l4.34-3.139l-5.356,0.012L67.188,0.733L67.188,0.733z"/>
	</g>
	<g>
		<path fill="#C2C2C2" d="M52.141,3.992l0.692,2.146l0.224,0.695l0.729-0.001l2.256-0.005l-1.827,1.321l-0.591,0.428l0.227,0.694
			l0.701,2.143l-1.821-1.33l-0.59-0.431l-0.59,0.431l-1.821,1.33l0.701-2.143l0.227-0.694l-0.591-0.428l-1.827-1.321l2.256,0.005
			l0.729,0.001l0.224-0.695L52.141,3.992 M52.141,0.733l-1.644,5.098l-5.356-0.012l4.34,3.139l-1.666,5.09l4.326-3.158l4.326,3.158
			l-1.666-5.09l4.34-3.139l-5.356,0.012L52.141,0.733L52.141,0.733z"/>
	</g>
	<g>
		<path fill="#C2C2C2" d="M37.094,3.992l0.692,2.146l0.224,0.695l0.729-0.001l2.256-0.005l-1.827,1.321l-0.591,0.428l0.227,0.694
			l0.701,2.143l-1.821-1.33l-0.59-0.431l-0.59,0.431l-1.821,1.33l0.701-2.143l0.227-0.694L35.02,8.147l-1.827-1.321l2.256,0.005
			l0.729,0.001l0.224-0.695L37.094,3.992 M37.094,0.733L35.45,5.831l-5.356-0.012l4.34,3.139l-1.666,5.09l4.326-3.158l4.326,3.158
			l-1.666-5.09l4.34-3.139l-5.356,0.012L37.094,0.733L37.094,0.733z"/>
	</g>
	<g>
		<path fill="#C2C2C2" d="M22.047,3.992l0.692,2.146l0.224,0.695l0.729-0.001l2.256-0.005l-1.827,1.321L23.53,8.575l0.227,0.694
			l0.701,2.143l-1.821-1.33l-0.59-0.431l-0.59,0.431l-1.821,1.33l0.701-2.143l0.227-0.694l-0.591-0.428l-1.827-1.321l2.256,0.005
			l0.729,0.001l0.224-0.695L22.047,3.992 M22.047,0.733l-1.644,5.098l-5.356-0.012l4.34,3.139l-1.666,5.09l4.326-3.158l4.326,3.158
			l-1.666-5.09l4.34-3.139L23.69,5.831L22.047,0.733L22.047,0.733z"/>
	</g>
</g>
<polygon fill="#707172" points="22.047,10.89 26.373,14.048 24.707,8.958 29.047,5.819 23.69,5.831 22.047,0.733 20.403,5.831 
	15.047,5.819 19.387,8.958 17.721,14.048 "/>
<polygon fill="#707172" points="37.094,10.89 41.42,14.048 39.754,8.958 44.094,5.819 38.737,5.831 37.094,0.733 35.45,5.831 
	30.094,5.819 34.434,8.958 32.768,14.048 "/>
<polygon fill="#707172" points="52.141,10.89 56.467,14.048 54.801,8.958 59.141,5.819 53.784,5.831 52.141,0.733 50.497,5.831 
	45.141,5.819 49.48,8.958 47.814,14.048 "/>
</svg>
